<mxfile host="app.diagrams.net" agent="Mozilla/5.0 (Windows NT 10.0; Win64; x64) AppleWebKit/537.36 (KHTML, like Gecko) Chrome/131.0.0.0 Safari/537.36" version="25.0.3">
  <diagram name="第 1 页" id="RvcXjm-Nj4UyGAPZbjTR">
    <mxGraphModel dx="2933" dy="2617" grid="0" gridSize="10" guides="1" tooltips="1" connect="1" arrows="1" fold="1" page="0" pageScale="1" pageWidth="827" pageHeight="1169" math="0" shadow="0">
      <root>
        <mxCell id="0" />
        <mxCell id="1" parent="0" />
        <mxCell id="c6foWVuKoWLp02Q5EuhB-264" style="edgeStyle=orthogonalEdgeStyle;rounded=0;orthogonalLoop=1;jettySize=auto;html=1;exitX=0.5;exitY=1;exitDx=0;exitDy=0;strokeWidth=2;" parent="1" source="c6foWVuKoWLp02Q5EuhB-262" edge="1">
          <mxGeometry relative="1" as="geometry">
            <mxPoint x="656" y="-28.6666259765625" as="targetPoint" />
          </mxGeometry>
        </mxCell>
        <mxCell id="c6foWVuKoWLp02Q5EuhB-262" value="" style="rounded=1;whiteSpace=wrap;html=1;dashed=1;strokeWidth=3;" parent="1" vertex="1">
          <mxGeometry x="290.62" y="-484" width="732.69" height="356" as="geometry" />
        </mxCell>
        <mxCell id="c6foWVuKoWLp02Q5EuhB-269" style="edgeStyle=orthogonalEdgeStyle;rounded=0;orthogonalLoop=1;jettySize=auto;html=1;exitX=0.5;exitY=1;exitDx=0;exitDy=0;strokeWidth=2;entryX=0.486;entryY=0.009;entryDx=0;entryDy=0;entryPerimeter=0;" parent="1" source="c6foWVuKoWLp02Q5EuhB-140" target="c6foWVuKoWLp02Q5EuhB-138" edge="1">
          <mxGeometry relative="1" as="geometry">
            <mxPoint x="1682" y="727.3333740234375" as="targetPoint" />
          </mxGeometry>
        </mxCell>
        <mxCell id="c6foWVuKoWLp02Q5EuhB-140" value="" style="rounded=1;whiteSpace=wrap;html=1;dashed=1;strokeWidth=3;arcSize=11;" parent="1" vertex="1">
          <mxGeometry x="1067.5" y="-710" width="1241" height="1364" as="geometry" />
        </mxCell>
        <mxCell id="c6foWVuKoWLp02Q5EuhB-55" value="&lt;div style=&quot;line-height: 110%;&quot;&gt;&lt;div style=&quot;line-height: 25.3px;&quot;&gt;&lt;font style=&quot;font-size: 26px; background-color: rgb(226, 241, 218);&quot;&gt;Q：The cross-section of a canal is shaped like a trapezium. If the canal is 10 m wide at the top and 6 m wide at the bottom and the area of cross-section is 640 square meters, the depth of cannel is?&lt;/font&gt;&lt;/div&gt;&lt;div style=&quot;line-height: 25.3px;&quot;&gt;&lt;font style=&quot;font-size: 26px;&quot;&gt;&lt;span style=&quot;background-color: rgb(253, 202, 201);&quot;&gt; &lt;span style=&quot;&quot; class=&quot;hljs-comment&quot;&gt;# Let&#39;s systematically solve the problem by following these steps:&lt;/span&gt;&amp;nbsp;&lt;span style=&quot;&quot; class=&quot;hljs-comment&quot;&gt;# Step 1: Define the necessary variables and their relationships.&lt;/span&gt;&amp;nbsp;&lt;span style=&quot;&quot; class=&quot;hljs-comment&quot;&gt;# Step 2: Implement the solution logic using the defined variables.&lt;/span&gt;&amp;nbsp;&lt;span style=&quot;&quot; class=&quot;hljs-comment&quot;&gt;# Step 3: Compute the final answer based on the implemented logic.&lt;/span&gt;&amp;nbsp;&lt;span style=&quot;&quot; class=&quot;hljs-comment&quot;&gt;# Finally, return the calculated result.&lt;/span&gt;&lt;/span&gt;&lt;/font&gt;&lt;/div&gt;&lt;div style=&quot;line-height: 25.3px;&quot;&gt;&lt;font style=&quot;font-size: 26px; background-color: rgb(212, 225, 245);&quot;&gt;A:# Step 1: Define the variables.&lt;/font&gt;&lt;/div&gt;&lt;div style=&quot;line-height: 25.3px;&quot;&gt;&lt;font style=&quot;font-size: 26px; background-color: rgb(212, 225, 245);&quot;&gt;&amp;nbsp; &amp;nbsp; top_width = 10&amp;nbsp; # a = 10 meters&lt;/font&gt;&lt;/div&gt;&lt;div style=&quot;line-height: 25.3px;&quot;&gt;&lt;font style=&quot;font-size: 26px; background-color: rgb(212, 225, 245);&quot;&gt;&amp;nbsp; &amp;nbsp; bottom_width = 6&amp;nbsp; # b = 6 meters&lt;/font&gt;&lt;/div&gt;&lt;div style=&quot;line-height: 25.3px;&quot;&gt;&lt;font style=&quot;font-size: 26px; background-color: rgb(212, 225, 245);&quot;&gt;&amp;nbsp; &amp;nbsp; area = 640&amp;nbsp; # A = 640 square meters&lt;/font&gt;&lt;/div&gt;&lt;div style=&quot;line-height: 25.3px;&quot;&gt;&lt;font style=&quot;font-size: 26px; background-color: rgb(212, 225, 245);&quot;&gt;&amp;nbsp; &amp;nbsp;&amp;nbsp;# Step 2: Solve for depth (h) using the area formula of a trapezium.&lt;/font&gt;&lt;/div&gt;&lt;div style=&quot;line-height: 25.3px;&quot;&gt;&lt;font style=&quot;font-size: 26px; background-color: rgb(212, 225, 245);&quot;&gt;&amp;nbsp; &amp;nbsp; # A = 1/2 * (a + b) * h&lt;/font&gt;&lt;/div&gt;&lt;div style=&quot;line-height: 25.3px;&quot;&gt;&lt;font style=&quot;font-size: 26px; background-color: rgb(212, 225, 245);&quot;&gt;&amp;nbsp; &amp;nbsp; h = (2 * area) / (top_width + bottom_width)&lt;/font&gt;&lt;/div&gt;&lt;div style=&quot;line-height: 25.3px;&quot;&gt;&lt;font style=&quot;font-size: 26px; background-color: rgb(212, 225, 245);&quot;&gt;&amp;nbsp; &amp;nbsp;&amp;nbsp;# Step 3: Return the depth of the canal.&lt;/font&gt;&lt;/div&gt;&lt;div style=&quot;line-height: 25.3px;&quot;&gt;&lt;font style=&quot;font-size: 26px; background-color: rgb(212, 225, 245);&quot;&gt;&amp;nbsp; &amp;nbsp; return h&lt;/font&gt;&lt;/div&gt;&lt;div style=&quot;line-height: 25.3px;&quot;&gt;&lt;font style=&quot;font-size: 26px;&quot;&gt;&lt;br&gt;&lt;/font&gt;&lt;/div&gt;&lt;div style=&quot;font-size: 23px; line-height: 25.3px;&quot;&gt;&lt;br&gt;&lt;/div&gt;&lt;/div&gt;" style="rounded=1;html=1;align=left;spacingLeft=10;spacingBottom=-40;spacingRight=10;spacingTop=15;spacing=0;container=0;whiteSpace=wrap;arcSize=5;" parent="1" vertex="1">
          <mxGeometry x="1161" y="-633" width="1081" height="523" as="geometry" />
        </mxCell>
        <mxCell id="c6foWVuKoWLp02Q5EuhB-57" value="&lt;div style=&quot;line-height: 100%;&quot;&gt;&lt;div style=&quot;line-height: 100%;&quot;&gt;&lt;div style=&quot;line-height: 23px;&quot;&gt;&lt;font style=&quot;font-size: 26px;&quot;&gt;&lt;span style=&quot;background-color: rgb(226, 241, 218);&quot;&gt;Q：Janice bikes at 10 miles per hour, while Jennie bikes at 20. How long until they have collectively biked 1 mile?&lt;/span&gt;&lt;br&gt;&lt;/font&gt;&lt;/div&gt;&lt;div style=&quot;line-height: 23px;&quot;&gt;&lt;font style=&quot;font-size: 26px; background-color: rgb(253, 202, 201);&quot;&gt;&lt;span style=&quot;&quot; class=&quot;hljs-comment&quot;&gt;# Let&#39;s systematically solve the problem by following these steps:&lt;/span&gt;&amp;nbsp;&lt;span style=&quot;&quot; class=&quot;hljs-comment&quot;&gt;# Step 1: Define the necessary variables and their relationships.&lt;/span&gt;&amp;nbsp;&lt;span style=&quot;&quot; class=&quot;hljs-comment&quot;&gt;# Step 2: Implement the solution logic using the defined variables.&lt;/span&gt;&amp;nbsp;&lt;span style=&quot;&quot; class=&quot;hljs-comment&quot;&gt;# Step 3: Compute the final answer based on the implemented logic.&lt;/span&gt;&amp;nbsp;&lt;span style=&quot;&quot; class=&quot;hljs-comment&quot;&gt;# Finally, return the calculated result.&lt;/span&gt;  &lt;/font&gt;&lt;/div&gt;&lt;div style=&quot;line-height: 23px;&quot;&gt;&lt;font style=&quot;font-size: 26px; background-color: rgb(212, 225, 245);&quot;&gt;A:&lt;span style=&quot;&quot; class=&quot;hljs-comment&quot;&gt;# Step 1: Define the variables&lt;/span&gt;&lt;br&gt;&amp;nbsp; &amp;nbsp;janice_speed =&amp;nbsp;&lt;span style=&quot;&quot; class=&quot;hljs-number&quot;&gt;10&lt;/span&gt;&amp;nbsp;&lt;span style=&quot;&quot; class=&quot;hljs-comment&quot;&gt;# Janice&#39;s speed in miles per hour&lt;/span&gt;&amp;nbsp;&lt;/font&gt;&lt;/div&gt;&lt;div style=&quot;line-height: 23px;&quot;&gt;&lt;font style=&quot;font-size: 26px; background-color: rgb(212, 225, 245);&quot;&gt;&amp;nbsp; &amp;nbsp;jennie_speed =&amp;nbsp;&lt;span class=&quot;hljs-number&quot;&gt;20&lt;/span&gt;&amp;nbsp;&lt;span class=&quot;hljs-comment&quot;&gt;# Jennie&#39;s speed in miles per hour&lt;/span&gt;&amp;nbsp;&lt;/font&gt;&lt;/div&gt;&lt;div style=&quot;line-height: 23px;&quot;&gt;&lt;font style=&quot;font-size: 26px; background-color: rgb(212, 225, 245);&quot;&gt;&amp;nbsp; &amp;nbsp;total_distance =&amp;nbsp;&lt;span class=&quot;hljs-number&quot;&gt;1&lt;/span&gt;&amp;nbsp;&lt;span class=&quot;hljs-comment&quot;&gt;# Total distance they collectively need to bike in miles&lt;/span&gt;&lt;/font&gt;&lt;/div&gt;&lt;div style=&quot;line-height: 23px;&quot;&gt;&lt;font style=&quot;font-size: 26px; background-color: rgb(212, 225, 245);&quot;&gt;&amp;nbsp; &amp;nbsp;# Step 2: Calculate their combined rate&lt;/font&gt;&lt;/div&gt;&lt;div style=&quot;line-height: 23px;&quot;&gt;&lt;font style=&quot;font-size: 26px; background-color: rgb(212, 225, 245);&quot;&gt;&amp;nbsp; &amp;nbsp;combined_rate = janice_speed + jennie_speed&amp;nbsp; # Combined rate in miles per hour&lt;/font&gt;&lt;/div&gt;&lt;div style=&quot;line-height: 23px;&quot;&gt;&lt;font style=&quot;font-size: 26px; background-color: rgb(212, 225, 245);&quot;&gt;&amp;nbsp; &amp;nbsp;&amp;nbsp;# Step 3: Calculate the time required to collectively bike 1 mile&lt;/font&gt;&lt;/div&gt;&lt;div style=&quot;line-height: 23px;&quot;&gt;&lt;font style=&quot;font-size: 26px; background-color: rgb(212, 225, 245);&quot;&gt;&amp;nbsp; &amp;nbsp; time = total_distance / combined_rate&amp;nbsp; # Time in hours&lt;/font&gt;&lt;/div&gt;&lt;div style=&quot;line-height: 23px;&quot;&gt;&lt;font style=&quot;font-size: 26px; background-color: rgb(212, 225, 245);&quot;&gt;&amp;nbsp; &amp;nbsp;&amp;nbsp;&amp;nbsp;# Step 4: Return the result&lt;/font&gt;&lt;/div&gt;&lt;div style=&quot;line-height: 23px;&quot;&gt;&lt;font style=&quot;font-size: 26px; background-color: rgb(212, 225, 245);&quot;&gt;&amp;nbsp; &amp;nbsp; return time&lt;/font&gt;&lt;/div&gt;&lt;/div&gt;&lt;/div&gt;" style="rounded=1;whiteSpace=wrap;html=1;align=left;spacingLeft=10;spacingBottom=-7;spacingRight=10;spacingTop=-7;spacing=0;container=0;strokeWidth=1;arcSize=6;" parent="1" vertex="1">
          <mxGeometry x="1151" y="-65" width="1095" height="473" as="geometry" />
        </mxCell>
        <mxCell id="c6foWVuKoWLp02Q5EuhB-58" value="&lt;div style=&quot;&quot;&gt;&lt;font style=&quot;font-size: 26px; background-color: rgb(226, 241, 218);&quot;&gt;&lt;font style=&quot;&quot;&gt;Q：A trivia team had 7 members total, but during a game 2 members didn&#39;t show up. If each member that did show up scored 4 points, how many points were scored total? &lt;/font&gt; &lt;/font&gt;&lt;/div&gt;&lt;div style=&quot;&quot;&gt;&lt;font style=&quot;font-size: 26px; background-color: rgb(253, 202, 201);&quot;&gt;# Let&#39;s systematically solve the problem by following these steps: # Step 1: Define the necessary variables and their relationships. # Step 2: Implement the solution logic using the defined variables. # Step 3: Compute the final answer based on the implemented logic. # Finally, return the calculated result.&lt;/font&gt;&lt;/div&gt;&lt;div style=&quot;font-size: 23px;&quot;&gt;&lt;br&gt;&lt;/div&gt;" style="rounded=1;whiteSpace=wrap;html=1;align=left;spacingTop=9;container=0;arcSize=12;spacingBottom=-17;spacingLeft=7;" parent="1" vertex="1">
          <mxGeometry x="1149" y="421" width="1106" height="205" as="geometry" />
        </mxCell>
        <mxCell id="c6foWVuKoWLp02Q5EuhB-158" value="&lt;font style=&quot;font-size: 35px;&quot;&gt;&lt;b style=&quot;&quot;&gt;&lt;font color=&quot;#3333ff&quot;&gt;(3) Chain-of-Thought Prompt Optimization&amp;nbsp; &lt;/font&gt;&lt;font color=&quot;#ff3333&quot;&gt;(Sec.3.2)&lt;/font&gt;&lt;/b&gt;&lt;/font&gt;" style="text;strokeColor=none;align=center;fillColor=none;html=1;verticalAlign=middle;whiteSpace=wrap;rounded=0;" parent="1" vertex="1">
          <mxGeometry x="1233.5" y="-675" width="909" height="30" as="geometry" />
        </mxCell>
        <mxCell id="c6foWVuKoWLp02Q5EuhB-219" value="&lt;font style=&quot;font-size: 35px;&quot;&gt;&lt;b style=&quot;&quot;&gt;...&lt;/b&gt;&lt;/font&gt;" style="text;strokeColor=none;align=center;fillColor=none;html=1;verticalAlign=middle;whiteSpace=wrap;rounded=0;container=0;" parent="1" vertex="1">
          <mxGeometry x="1581" y="-112" width="171" height="30" as="geometry" />
        </mxCell>
        <mxCell id="c6foWVuKoWLp02Q5EuhB-244" style="edgeStyle=orthogonalEdgeStyle;rounded=0;orthogonalLoop=1;jettySize=auto;html=1;exitX=1;exitY=0.5;exitDx=0;exitDy=0;strokeWidth=2;" parent="1" source="c6foWVuKoWLp02Q5EuhB-204" edge="1">
          <mxGeometry relative="1" as="geometry">
            <mxPoint x="1061" y="-18" as="targetPoint" />
          </mxGeometry>
        </mxCell>
        <mxCell id="c6foWVuKoWLp02Q5EuhB-6" value="" style="rounded=1;whiteSpace=wrap;html=1;container=0;" parent="1" vertex="1">
          <mxGeometry x="323.62" y="-410" width="680.69" height="253" as="geometry" />
        </mxCell>
        <mxCell id="c6foWVuKoWLp02Q5EuhB-152" value="&lt;font face=&quot;Helvetica&quot; style=&quot;font-size: 35px;&quot; color=&quot;#3333ff&quot;&gt;&lt;b style=&quot;&quot;&gt;(1) Readability Analysis&lt;/b&gt;&lt;/font&gt;" style="text;strokeColor=none;align=center;fillColor=none;html=1;verticalAlign=middle;whiteSpace=wrap;rounded=0;container=0;" parent="1" vertex="1">
          <mxGeometry x="433.36" y="-445" width="414.93" height="22" as="geometry" />
        </mxCell>
        <mxCell id="c6foWVuKoWLp02Q5EuhB-1" value="&lt;font style=&quot;background-color: rgb(226, 241, 218); font-size: 27px;&quot;&gt;Q：&lt;span style=&quot;font-size: 26px;&quot;&gt;The cross-section of a canal is shaped like a trapezium. If the canal&lt;/span&gt;...&lt;/font&gt;" style="rounded=1;whiteSpace=wrap;html=1;strokeWidth=2;align=left;container=0;" parent="1" vertex="1">
          <mxGeometry x="373.82000000000005" y="-392" width="523" height="78" as="geometry" />
        </mxCell>
        <mxCell id="c6foWVuKoWLp02Q5EuhB-5" value="&lt;font style=&quot;background-color: rgb(226, 241, 218); font-size: 27px;&quot;&gt;Q：&lt;span style=&quot;font-size: 26px;&quot;&gt;Janice bikes at 10 miles per hour, while Jennie bikes at 20. How&amp;nbsp;&lt;/span&gt;&amp;nbsp;...&lt;/font&gt;" style="rounded=1;whiteSpace=wrap;html=1;strokeWidth=2;align=left;container=0;" parent="1" vertex="1">
          <mxGeometry x="371.82000000000005" y="-276" width="527" height="102" as="geometry" />
        </mxCell>
        <mxCell id="c6foWVuKoWLp02Q5EuhB-9" value="&lt;font style=&quot;font-size: 24px;&quot;&gt;&lt;b style=&quot;&quot;&gt;...&lt;/b&gt;&lt;/font&gt;" style="text;strokeColor=none;align=center;fillColor=none;html=1;verticalAlign=middle;whiteSpace=wrap;rounded=0;container=0;" parent="1" vertex="1">
          <mxGeometry x="610.82" y="-313" width="60" height="30" as="geometry" />
        </mxCell>
        <mxCell id="c6foWVuKoWLp02Q5EuhB-67" style="edgeStyle=none;rounded=0;orthogonalLoop=1;jettySize=auto;html=1;exitX=0.5;exitY=1;exitDx=0;exitDy=0;" parent="1" source="c6foWVuKoWLp02Q5EuhB-9" target="c6foWVuKoWLp02Q5EuhB-9" edge="1">
          <mxGeometry relative="1" as="geometry" />
        </mxCell>
        <mxCell id="c6foWVuKoWLp02Q5EuhB-182" value="&lt;font style=&quot;&quot;&gt;&lt;sub style=&quot;&quot;&gt;&lt;font style=&quot;font-size: 28px;&quot;&gt;&lt;font style=&quot;&quot;&gt;R1&lt;/font&gt;&lt;span style=&quot;white-space: pre;&quot;&gt;&#x9;&lt;/span&gt;&lt;/font&gt;&lt;font style=&quot;font-size: 29px;&quot;&gt;V1&lt;/font&gt;&lt;/sub&gt;&lt;/font&gt;" style="text;strokeColor=none;align=center;fillColor=none;html=1;verticalAlign=middle;whiteSpace=wrap;rounded=0;container=0;" parent="1" vertex="1">
          <mxGeometry x="923.82" y="-362" width="60" height="30" as="geometry" />
        </mxCell>
        <mxCell id="c6foWVuKoWLp02Q5EuhB-189" value="&lt;font style=&quot;&quot;&gt;&lt;font style=&quot;&quot;&gt;&lt;sub style=&quot;&quot;&gt;&lt;font style=&quot;font-size: 28px;&quot;&gt;Rn&amp;nbsp;&lt;/font&gt;&lt;span style=&quot;font-size: 24px; white-space: pre;&quot;&gt;&#x9;&lt;/span&gt;&lt;font style=&quot;font-size: 28px;&quot;&gt;Vn&lt;/font&gt;&lt;/sub&gt;&lt;/font&gt;&lt;/font&gt;" style="text;strokeColor=none;align=center;fillColor=none;html=1;verticalAlign=middle;whiteSpace=wrap;rounded=0;container=0;" parent="1" vertex="1">
          <mxGeometry x="922.82" y="-236" width="60" height="30" as="geometry" />
        </mxCell>
        <mxCell id="c6foWVuKoWLp02Q5EuhB-204" value="" style="rounded=1;whiteSpace=wrap;html=1;dashed=1;strokeWidth=3;container=0;arcSize=10;" parent="1" vertex="1">
          <mxGeometry x="287.57" y="-24.65" width="706.5" height="894" as="geometry" />
        </mxCell>
        <mxCell id="c6foWVuKoWLp02Q5EuhB-157" value="&lt;font style=&quot;font-size: 35px;&quot;&gt;&lt;b style=&quot;&quot;&gt;&lt;font color=&quot;#3333ff&quot;&gt;(2) Feature Clustering&amp;nbsp; &lt;/font&gt;&lt;font color=&quot;#ff3333&quot;&gt;(Sec.3.1)&lt;/font&gt;&lt;/b&gt;&lt;/font&gt;" style="text;strokeColor=none;align=center;fillColor=none;html=1;verticalAlign=middle;whiteSpace=wrap;rounded=0;container=0;" parent="1" vertex="1">
          <mxGeometry x="374.07" y="-1.9999999999999991" width="541" height="29.92" as="geometry" />
        </mxCell>
        <mxCell id="c6foWVuKoWLp02Q5EuhB-238" value="" style="shape=flexArrow;endArrow=classic;html=1;rounded=0;fillColor=#fff2cc;strokeColor=#000000;strokeWidth=2;endWidth=29.529085872576175;endSize=8.621052631578948;width=18.947368421052634;" parent="1" edge="1">
          <mxGeometry width="50" height="50" relative="1" as="geometry">
            <mxPoint x="667.7700000000001" y="254.35" as="sourcePoint" />
            <mxPoint x="667.7700000000001" y="347.35" as="targetPoint" />
          </mxGeometry>
        </mxCell>
        <mxCell id="c6foWVuKoWLp02Q5EuhB-46" value="" style="rounded=1;whiteSpace=wrap;html=1;container=0;" parent="1" vertex="1">
          <mxGeometry x="330.65999999999997" y="521.35" width="644.46" height="310" as="geometry" />
        </mxCell>
        <mxCell id="c6foWVuKoWLp02Q5EuhB-47" value="&lt;font style=&quot;font-size: 27px;&quot;&gt;&lt;span style=&quot;background-color: rgb(226, 241, 218);&quot;&gt;Q：&lt;span style=&quot;font-size: 26px;&quot;&gt;The cross-section of a canal is shaped like a trapezium. If the canal&lt;/span&gt;&amp;nbsp;...&lt;/span&gt;&lt;/font&gt;&lt;span style=&quot;font-size: 26px; background-color: rgb(253, 202, 201);&quot;&gt;# Let&#39;s systematically solve the problem&lt;/span&gt;" style="rounded=1;whiteSpace=wrap;html=1;strokeWidth=2;align=left;container=0;arcSize=11;" parent="1" vertex="1">
          <mxGeometry x="405.94" y="539.35" width="555.06" height="104.15" as="geometry" />
        </mxCell>
        <mxCell id="c6foWVuKoWLp02Q5EuhB-48" value="&lt;font style=&quot;font-size: 27px;&quot;&gt;&lt;span style=&quot;background-color: rgb(226, 241, 218);&quot;&gt;Q：&lt;/span&gt;&lt;span style=&quot;font-size: 26px; background-color: rgb(226, 241, 218);&quot;&gt;Janice bikes at 10 miles per hour, while Jennie bikes at 20. How&lt;/span&gt;&lt;span style=&quot;background-color: rgb(226, 241, 218);&quot;&gt;...&lt;/span&gt;&lt;span style=&quot;font-size: 26px; background-color: rgb(253, 202, 201);&quot;&gt;# Let&#39;s systematically solve the problem&lt;/span&gt;&lt;span style=&quot;background-color: rgb(253, 202, 201);&quot;&gt;....&lt;/span&gt;&lt;/font&gt;" style="rounded=1;whiteSpace=wrap;html=1;strokeWidth=2;align=left;container=0;arcSize=8;" parent="1" vertex="1">
          <mxGeometry x="405.94" y="706.07" width="556.06" height="106.27" as="geometry" />
        </mxCell>
        <mxCell id="c6foWVuKoWLp02Q5EuhB-51" value="&lt;font style=&quot;font-size: 24px;&quot;&gt;1&lt;/font&gt;" style="rounded=1;whiteSpace=wrap;html=1;container=0;" parent="1" vertex="1">
          <mxGeometry x="357.6834743202417" y="580.9994805194806" width="26.75129909365559" height="29.50316883116883" as="geometry" />
        </mxCell>
        <mxCell id="c6foWVuKoWLp02Q5EuhB-52" value="&lt;font style=&quot;font-size: 24px;&quot;&gt;K&lt;/font&gt;" style="rounded=1;whiteSpace=wrap;html=1;container=0;" parent="1" vertex="1">
          <mxGeometry x="358.8305438066465" y="736.5942857142858" width="25.604229607250755" height="25.932467532467534" as="geometry" />
        </mxCell>
        <mxCell id="c6foWVuKoWLp02Q5EuhB-141" value="&lt;font style=&quot;font-size: 35px;&quot;&gt;&lt;b style=&quot;&quot;&gt;...&lt;/b&gt;&lt;/font&gt;" style="text;strokeColor=none;align=center;fillColor=none;html=1;verticalAlign=middle;whiteSpace=wrap;rounded=0;container=0;" parent="1" vertex="1">
          <mxGeometry x="606.4921145750967" y="656.8058775510206" width="58.754153507228374" height="36.61892393320965" as="geometry" />
        </mxCell>
        <mxCell id="c6foWVuKoWLp02Q5EuhB-20" value="" style="rounded=1;whiteSpace=wrap;html=1;container=0;" parent="1" vertex="1">
          <mxGeometry x="338.57" y="46.17" width="612" height="180.53" as="geometry" />
        </mxCell>
        <mxCell id="c6foWVuKoWLp02Q5EuhB-41" value="&lt;b&gt;&lt;font style=&quot;font-size: 30px;&quot;&gt;clustering&lt;/font&gt;&lt;/b&gt;" style="text;strokeColor=none;align=center;fillColor=none;html=1;verticalAlign=middle;whiteSpace=wrap;rounded=0;container=0;" parent="1" vertex="1">
          <mxGeometry x="614.5358612786033" y="105.92700416088766" width="81.06880086728468" height="54.03404362627663" as="geometry" />
        </mxCell>
        <mxCell id="c6foWVuKoWLp02Q5EuhB-266" value="" style="group" parent="1" vertex="1" connectable="0">
          <mxGeometry x="383.57" y="68.35" width="141.19000000000005" height="141.19" as="geometry" />
        </mxCell>
        <mxCell id="c6foWVuKoWLp02Q5EuhB-24" value="" style="ellipse;whiteSpace=wrap;html=1;aspect=fixed;dashed=1;container=0;strokeWidth=2;" parent="c6foWVuKoWLp02Q5EuhB-266" vertex="1">
          <mxGeometry width="141.19" height="141.19" as="geometry" />
        </mxCell>
        <mxCell id="c6foWVuKoWLp02Q5EuhB-26" value="" style="ellipse;whiteSpace=wrap;html=1;aspect=fixed;fillColor=#dae8fc;strokeColor=#6c8ebf;container=0;" parent="c6foWVuKoWLp02Q5EuhB-266" vertex="1">
          <mxGeometry x="26.387522658610237" y="25.387740259740255" width="28.166649350649347" height="28.166649350649347" as="geometry" />
        </mxCell>
        <mxCell id="c6foWVuKoWLp02Q5EuhB-27" value="" style="ellipse;whiteSpace=wrap;html=1;aspect=fixed;fillColor=#dae8fc;strokeColor=#6c8ebf;container=0;" parent="c6foWVuKoWLp02Q5EuhB-266" vertex="1">
          <mxGeometry x="87.24365558912382" y="25.387740259740255" width="28.166649350649347" height="28.166649350649347" as="geometry" />
        </mxCell>
        <mxCell id="c6foWVuKoWLp02Q5EuhB-28" value="&lt;font style=&quot;font-size: 18px;&quot;&gt;1&lt;/font&gt;" style="ellipse;whiteSpace=wrap;html=1;aspect=fixed;fillColor=#dae8fc;strokeColor=#6c8ebf;container=0;" parent="c6foWVuKoWLp02Q5EuhB-266" vertex="1">
          <mxGeometry x="55.3100604229607" y="57.5140779220779" width="28.85485714285714" height="28.85485714285714" as="geometry" />
        </mxCell>
        <mxCell id="c6foWVuKoWLp02Q5EuhB-29" value="" style="ellipse;whiteSpace=wrap;html=1;aspect=fixed;fillColor=#dae8fc;strokeColor=#6c8ebf;container=0;" parent="c6foWVuKoWLp02Q5EuhB-266" vertex="1">
          <mxGeometry x="26.95081570996979" y="92.93184415584415" width="29.612883116883115" height="29.612883116883115" as="geometry" />
        </mxCell>
        <mxCell id="c6foWVuKoWLp02Q5EuhB-30" value="" style="ellipse;whiteSpace=wrap;html=1;aspect=fixed;fillColor=#dae8fc;strokeColor=#6c8ebf;container=0;" parent="c6foWVuKoWLp02Q5EuhB-266" vertex="1">
          <mxGeometry x="80.91429003021142" y="92.93184415584415" width="28.565610389610388" height="28.565610389610388" as="geometry" />
        </mxCell>
        <mxCell id="U7XjsWgLTpNfJLUAVSaI-1" value="" style="shape=cube;whiteSpace=wrap;html=1;boundedLbl=1;backgroundOutline=1;darkOpacity=0.05;darkOpacity2=0.1;size=7;rotation=0;" parent="1" vertex="1">
          <mxGeometry x="609.46" y="1178" width="95" height="31" as="geometry" />
        </mxCell>
        <mxCell id="U7XjsWgLTpNfJLUAVSaI-2" value="" style="rhombus;whiteSpace=wrap;html=1;fillColor=#dae8fc;strokeColor=#6c8ebf;direction=east;" parent="1" vertex="1">
          <mxGeometry x="951" y="1209" width="80" height="80" as="geometry" />
        </mxCell>
        <mxCell id="JCmSJYvO-XVCD5mwtdUW-1" value="" style="shape=image;verticalLabelPosition=bottom;labelBackgroundColor=default;verticalAlign=top;aspect=fixed;imageAspect=0;image=data:image/png,iVBORw0KGgoAAAANSUhEUgAAAMgAAADICAYAAACtWK6eAAAAAXNSR0IArs4c6QAAFmhJREFUeF7tnW+MXcV1wM+8td3USMVVvBE2FfscFWXNoyElipsPuN79XCqDP0UYsruRFwmpFa3yoUItvLtpU0RaaGkrNQU33l3/Ec0HE1dETdpKXkMaYUiTIgPrFLDfkmCbeJ0uf2wS2H23PvftXT+/vX/mzp25c+bec6XIxJ5/98z5vTPn3JkzAvhhCbAEYiUgWDYsAZZAvAQYENYOlkCCBBgQVg+WAAPCOsASUJMAWxA1uXGtikiAAanIRPNrqkmAAVGTG9eqiAQYkIpMNL+mmgQYEDW5ca2KSIABqchE82uqSYABUZMb16qIBBiQikw0v6aaBBgQNbnlq/X5L9SDBpZqQyBgIPhvXwwFfwro/Bus/NndV2vl//jQ+e/a8p++3wIf5oK/66u14PkDM/kGybU708GPWQkEMKypQ7u9I4BAQAcE8w8C0woAavvHGBo1gTMganKLr4VAtGsjnQLC0918zvauhubFQ5M52yt9dQZExxSHUBRrIXSMvHXZos0EFoZhiZQnA6KqZiuWQozG+AuqLduq14FFiCn2X65MAQOSVR0RDL+veXl9j2CU9WkB+JNQqx2rOiwMiIyKG7QW9U39UN+0EYY+uzUYycB1G1dGVN/cv2p0rTPng7+bOzcPrbPzK/8e/v3MD2dl3ihLmRbUxFhVQWFAklTlChi5nW0EASFAGHbcuhWGbu0Aoftpne0ANPPfs3DsRycBwdEETSVBYUDiNHTbXc08USgEYvT27UZhkIWrFxqEJ/w72TZWygmYBLE0Ac8/deWbTOZG3KnAgPTOVQ4wQihGfm874H9TfRAOXJ5Nffs5mHzmWZVhLvso7amyg8KAhOrx+buHoO3vyxqRCqFo7tmlomjW6yAs4XJMAZYOKC8cmrD+IoYGwICgYBWshje+C6hbiqw6E8KCliWj31Ja/6TagAROeN9RWavhurXIAgzCMvaVJ7KAUkprUl1AMliNKoHRCxFakoknD2cDpbY0XBbfpHqAoNVY6tsnu2kQl1Ku+hdZLEZaWfRPJvY+LRv9Ko01qRYgHUccl1Spz+jtvwvNPXeSjkalvoTmAqGPIg+K77nuwFcHkM/dNQpCYJQq8cHl1L6H7jX2IS+tfxf+HUFBR9578rDMcFvg8JKrGoBI+htoNfY9eK/MpHMZ/Fr/w9nAkZf46OgsJOUH5HO7j6b5G2w11HnPEO1yEpJyAyIBB+6JOvqPf6quIVwzsCCSSy7nICkvIBJw8JJKL90IyvB9f5m25HIKknICIgEH+hoICD96JVA2SMoHSAoc7G/oBSKqtTJBUi5Afmf3vqSTfgyHeTjCHqQheeHgluJGlb2n8gAi8REQnXFTB5Wyi778NaQiXHi+5PjBMarSKAcgDAdV/Qoc9tRNj74/RjWrSjkA2bb7dNKOXLYcdvmRgIRsZMt9QFKccobDLhwZfJIWEPRH3AYkZQsJh3JpwBGOAremDN/31fhBEfRH3AUkxe/gL+S04AhHM7H3cPImR2L+iLuAJCytGA6acOCopPwRQkstNwFJ2bp++lt/w+c46DISQJK4JYWQFXEPkM45coxaRT7slBMmo2toCMmWO/44brBkHHb3AOGllRsESIxy7M+fiM/LRcRhdwuQFMecl1YSWkmoSKoVIXAS0S1AEqwHh3QJaX6GoWAyCLQkkQ8BK+IOIAnWg6NWGTSSWNEUh916Qjp3AEmwHuyYE9P6jMOhbEXcAMRx6zG/8BFs3LA2o9pUp3jKtxGrES03AHHIepxsXYTzCx/Bt4517ulAOPBBQPB/W+vXwG23bGBgeviPtSI+zMCLB4dt/Vy4Aci23X6UgCidKUcQnjzyFpxsXZKay+2f2QB37OhnULqkhfu0ViXNrolhm7db0Qck4ZQgFd8DrcbDU3NSYHQXQosyvnMzDNavyVy3jBXC7CiTzzwHi0vtxZ++PT9u+5wIfUBiznpQiVw99z8LsPfImVz6umfnZkCLws8qCQwLIWZsyoU2IAl7rih891C1HFET/uj9N/Jya7VgPCGE1ct5aAOSsLzyjx+w+cMS9D0y8aq2MeBy64GROkNytURbQgirSR1oA0LYOcco1dMznUiVrqfoUHDYH0bVMLpWdP8ycrtsQazqqNXOEwWUsLyi4JzrtB4yimK6DGELZtUPoQsI4eUVhnS//PhrpnXWSvsEAwZW/RC6gMREryh8+zCxvLJCQ0ynxCCZEULwh8JVcxXjf1CIXpUdEJyLO4f6gw+ZBB6rjjpNC5Lgf1A48/HwVEv6izkBBVMeAiFItgghWsovkqMiTUBi/A8qHwfxwyB+IKzCQwQSa446TUAI+x8IRZUAIbLcsuaoUwUkcnMiBf8DFUbH9hLXrA9aEou7kK056vQASchaQsH/CBUbw7zhVnbXlF11vBYhseao0wMkwUGnsL0kVK6qLbPC97a0TZ8BWflVi8m3i5ffoAWh8qD1wGiWTivywMgAbNywzvgrzi98CE8eOaM89sH6ehjfeb3WrSm4bP3x3CU4v/BhMK7wFGZ4yOzIzIUtk97WwiNZ9CxITASLwgfCXs3V+T2k6GhRXsB1QYJgoBxlfmh88Gf6oG+sSFDoARITwfLGd0Fzzy7jv65ZO9ABCSob7uQt+skLSd79W8rfkwR4081GIdvgnQGESgQrSonzQFK05egdvw1Ish5PjvzhKAgSBkTTz3aWpULYJfocFI7bFg2JsuXonasCIKEISOQ3EApb3GVYQlC+99LCiqPZWwejQJ8aWE/yiG2e0LXsciuPtY2Sfw1qRp13BkRG6xXL4JFcfDANENUDSb2vlvfXHf2ppEc264usyNFx3+/dbGy3rzOAUPpIKDt5rpZz7RtPDdrDk95vGUnuQAsQR76iu6r4WcbtFCQGfREGJIvWVKysbn/BlPhMLrOIAXL3ELT9o1GCpLTNxNREU2zXFUimvYYRXTbSqPJEO7IPS/n9HK3oAiSVBoTaPixH9TzXsKlDUg1AiJ8kzKVhJaiMkOB3Hpl9UwW/bmvaaxhJMEdsibX7KAgY6hUuxY2KBSsAme4oQlINJz3hkhzK+7DIaG6BA8EPoHm2y2sfaunDvHx7rXadMd0gLrPQmsy2LtpechlbXqEM7S+xEj4O4gCpZDIxrXAutx9uqZF5B+2Wx6D1oAFIwvVqOEBXNinKKAeX6VxJp/EkplHrYR+QFDgoHZLC6M2FdzpHQfHB3asfv3Yt9G9Ya33LetTYBgfWB8d3KWZs1xQybtWgNmz6dKG9JVbM2fPwV5bC0ipcZ6clicMdrEVfIRBuq0/bHavraKxu66dyfqZrDK0atMdMbVDsflc7gKQ45RTgUPmVK0oZVbakW0zZE8uWSjRMAExOeY0x3cDGtWcHkISlFQU4VBSwW8CmsqPnPapaFMBZlRdBefrY+cR8xzdc97Hv/fTcpQeLsBp2LUjCvR8UnHJd27x13zmoy7mVPfmXVcl1le8+ZIZtdh00GxNCTOrqR7adYi1IytLKdsRKZ0pR3YqY16p1K4TtRBGyytlTzkqG92IBIb600n2tGi5p+iUTwSVFm9B6pAUKsiqdbguXtf+s5W3dVVgcIAlb2Sns1lVxyrNOMqXytnJxKcqgAsmrY26MouB34BjyZPRQnHTr1RyyIpNCiMIiV8U76QmOOYWoVZkv5Uyi0FS0zQD5Vhx0fA/zS6yUvVYUspVg5OThqTkD80q7SYecdSsOejGAJDjmVLaS6Ixe0Ubi6tFhEju0IsQfa8sr84AkhHUpOOahYjAgpBGxtrwyD0iC9aB0CIqXWKQBsba8MgtIgvWg4Jh3qwQDQhYQazdLhRIx56QnRK5sfzGPUocqhnmnmjeRJWN5YFaXV2YtSMx3D2rWI9SQqn0oxC/3+B2E+GN1eWUOkATrQcn36FUO3VYEo0S33XLtSjeY5V3lwbv7dG81oXI3SYI8rEavzC6xYq5Rw04ppxDVaUV0/0Lr3KzoyDaTYSFEbMb2UW+2vgTtoT5otwDWBJd7mjhdqN8HSdhzRdl6hL8Yura76/6F1rnd3YGlVeTeq3u8V0YFQPMyC5EXOmJ+LAAxtd9raNsWbwCQ6ORv1K1Ht6nP+2utG45wbCon8LrfC63a+M7N1s/QSywzr3LOvzjxShN8GI0Do7e9zm24/oSOw1X6AYlxzl3LjqiSQbAIBVS1JI4sqwJd797afo/38lEBYlW2TQnIwAcYy2tN9AKSsLyiGNpNE3J4FDS82D6uPIJxx47+Qu8dlDmmiuNFMO7c0e+C1QjFu2I98sCxMlc582bpBaTEyafD1DqYSTA8BIWXceKD0SpbD4Jycu5S0H3v2Fy5F7FbdqH1WF5WeTrkmueKNr2AxESvXFte6ZiUsrVRREb3hfcW//ar35h7HKNTAmCfRhkq59DSDUjkFc64MbG+aSMMfXYr7Lh1a5BOlB/6ElDxw8i+leJSqxBAooSG0ATA/PYg1Df3MzSENCtveiFCr7IyFNUrEvQCkpJKNElwITBoadjK2FOxMp+urEFtS9aPiXoBSUnrk2XaERh82MpkkVq+smWGAyWjEvbVCwiOIiHUm2/6AEJfpjm+i5dkeYXZU7/scASvq+CH6AcEBxKcQ6+NXB6RljBdry4gKKO3b4fmnl2a1aSazVUCDlKAdOsZwrJUG4Ka2AF+cP9g5D6arKpJ6chu1rFTKl8ZOMgC0qsN3cC0oR51aaesArn4dV723YooVyk4yPggWWcWgYE1dVhq15etDG5Kk3oopAySGijBQlWDA6dA5S51Mz5IXoWQtDIMiJqgqwgHAChd10YTkF4fpt13OkoVGJDsgOSFQ/eVbvMLHwWHnSIeLb7qSrsKEayO20L9ScjMSPl0IkWx5oXDQKrSyINReFqwDe2jugI6qtbDEUDuHoK2j8Ja9TAg8hgShAMHH3vuvJy7eeXnS75kwtd5BkROjEThwMEnpvXRAUmere5sQeT0y+lShOFIBQQLZD1u2zVZWm7CdcAH4SWWKqHE4cDXksp7NeqdGFoC0ZQ9eos34QqoTWTdmBglZwZEVfuI13MAjqvOnsuIE0HxoTbSBr8uQGCUayXShVC0AY71QW1GBxjheBgQmZlRKBMmervwTidZ3MevXQv9G9bCxg3rQHeotHd4LsCBkSUhxBYF0RZahQHRKG5UzPAUXlKzeIYdkzyYAMUROBIjWBqnJHdTDEhuEXYaUEk4hzc83XbLBm2gOAQHA6JJ75a3zkd/SacQ5s17PBXT8ozvvD43JI7BgerhXc5gMqFNTww15IAFwbMldLea5M3CiPOKS60HRurKkDgIB7629asNZJhiQGSkFFNGZ7Jr1Qs1KcLx8qmLcOL196F15gM4d+HDQHq/sq4W/AB88vr1cMtvXgM33rA+MTl1jmnRWpUBURRnXsWM6hYhwWhXlgd9H9VH996q46+8C888Nw9vvv2L1CGtW1t78ZeLSw/ub9783dTCFgswIIrCV3HKFbsyUk03HP/8r2fg2R8tZB6rAPG1Ke+mP8lcsaAK9AFBQcQkxLZ1otCE9ShovoNudMLRbvvw6KE34eU3LuZ5hf3TXuOLeRowVZcBUZCsTt9DoftcVXTCgQP5+2/+BH4w+16uMS1X/odpr/GHOhrS2YYrgOCBqVUHaGxZEFcB0Q3Ht/9rHr75nz/TqY/3THuNAzobzNuW04DYurHKRf9DNxzvXlyEP3rsNVhqR6ZjVtXL09Ne45OqlU3UcwOQmJSm3vguK7mxXANENxyoiKasqBDwpalmQ2dm91zcMCAK4nMJEBNwoMj+7Oun4CcS4dzs4vWfmfZu/v3s9czUcAOQmIt5bN07gjt183x/MDOVq1s1Bcd7lxbhD/7qf029xsK01/h1U41nbddpQPCeEXTUi37wVqeHp+aK7jZTf6bgwEG88dYH8JW9kYlmMo0xrnANYNOk1zinpbGcjbgByLa7mlF5fm0BgjL/8uOvQRG3LmWd3yIuEj3xxvvw1wfezDo06fLtvr7BAw8O/li6gsGCbgASkzHeZn5eE04q7uwN7z/MOucIBm5TKeK+xFdPX4RHps1Z0DbAjQe8xutZZWCivBuAxGQ2sQmIbivi0jXN6Jyjk27qWXOp79e+8bVBLV8f847RaUDw5W2eCVG9s7x30vDX/9H7b8w7l4XV930fvvQXs9BuG+ny9WmvQUYYjgASfybE1tf0UDXyQlKEz2BCjR879Ca89Nr72psWAF+f8hr3aW9YsUE3AMGXI7ZhsVveqpDoOk2oOPe5qn3/xDvwT4ffytVGVGUBSzumvE8/q71hxQbdAYTY1/QoeeP3EXTe06JbaDUwaUMRDrWiXkhVaz5xClpn089+SDXWKXRk2mvckaG88aIMiAER43eSk3OXYLZ1ZQs4RqcQjMGB9TBYv8ZAr8U3+eqpi/DIfm3RrF/WYM1nJr1PnSz+TeJ7dAcQgt9CKE2krbH8+/Gfw8HvaPimJ8QXpps3/Yut94jr13lAbId6qU2ojfH82/cvwFP/8bZy1wLEyJR307RyAwYrugMIZ3k3qAb5m/7B7Ltw6LtvQ5hJUqpFAS/5Yun+/Q99+phUeQuFHAKEbqjXwryR7HJxyQe0Jng2/Wf/18lmEvX4IE6A7+/dP9H4O5Iv0jUodwDBQRMO9VKf6KLHN3f2F9A6+wH8/N1F+GjRh3VrRRCkuOETH3trYPOv/kbR41Htzy1AHAj1qk5Eheo5kbQ6nI9SAGJzV2+FFFvXq0beS6ircd3tuAVITKiXI1m61cJoewyIMfEWHMlqnT2/8iqts/PBf7fOnIe5c/MwcN3G4P/jqUZ+MkmAAckkriyFE66Ejtu0GCp5t4Jjl6jkgcJ3KX74/7vBSBseWq/R27dbSR6RNjai/86AGJ2Ybbsjc2ShotY3bbyi8F2//kbHs9y4rfPxRbyb5j4YEM0Cvbq5mEiW0T4lG7eVhkhyeFSKMSBGZyLBDzHar0TjaMX2PXQvYFSNn1gJTAohxlyRj1tRLJRqxw85GpWKlILQOaKWOgsMSKqI8hZIcNbzNi1Rv9VVZlW+YPw326ccJd7BZhEGpBDpq1uSjoL70Pmztvyn74d/3zng0FdbBmGxBc8/1Q1F5/USlnr84TJRAxiQQgAJl1uwpg5L7ToIGFjp14e5qxQc/yFKyfMONCFgwFaEfZC86uV+/YSlHke0GBD3FVzHG8RYEV5mMSA61Mv9NmKyPgZuznFSd8FQkTX7IFRmopBxKGx/KWRcdDthQOjOjaGRxWx/YT8kUt4MiCE1pNss+yFZ5oYBySKtUpQlmH2esFwZEMKTY2Zo7IdkkSsDkkVapSnLCSVkp5IBkZVUqcrFOOq2rqomLFve7k54cswNjTOuyMqWAZGVVKnKEbuJl7BsGRDCk2NuaJxcW1a2DIispEpVLibUu+X6T3zn1OHHHtH0rqu33WtquKhmhBBOvYN7JwqLmsms/cSGen0PXjg0kbU5Lk9DAgyIznnotSICJuH4QWfOX+sURVnaYkB0zyRaEjzE9fyBGd1Nc3vFS4ABKV7m3KNDEmBAHJosHmrxEmBAipc59+iQBBgQhyaLh1q8BBiQ4mXOPTokAQbEocnioRYvAQakeJlzjw5JgAFxaLJ4qMVLgAEpXubco0MSYEAcmiweavESYECKlzn36JAEGBCHJouHWrwE/h/zirVffaMkegAAAABJRU5ErkJggg==;" parent="1" vertex="1">
          <mxGeometry x="431.57" y="323.85" width="113" height="113" as="geometry" />
        </mxCell>
        <mxCell id="JCmSJYvO-XVCD5mwtdUW-5" value="" style="group" parent="1" vertex="1" connectable="0">
          <mxGeometry x="785.5702416918429" y="66.00163636363635" width="140.86316883116876" height="140.8631688311688" as="geometry" />
        </mxCell>
        <mxCell id="c6foWVuKoWLp02Q5EuhB-25" value="" style="ellipse;whiteSpace=wrap;html=1;aspect=fixed;dashed=1;container=0;strokeWidth=2;" parent="JCmSJYvO-XVCD5mwtdUW-5" vertex="1">
          <mxGeometry width="140.8631688311688" height="140.8631688311688" as="geometry" />
        </mxCell>
        <mxCell id="c6foWVuKoWLp02Q5EuhB-208" value="" style="ellipse;whiteSpace=wrap;html=1;aspect=fixed;fillColor=#fff2cc;strokeColor=#d6b656;container=0;" parent="JCmSJYvO-XVCD5mwtdUW-5" vertex="1">
          <mxGeometry x="56.34444108761329" y="11.003038961038925" width="28.166649350649347" height="28.166649350649347" as="geometry" />
        </mxCell>
        <mxCell id="c6foWVuKoWLp02Q5EuhB-209" value="" style="ellipse;whiteSpace=wrap;html=1;aspect=fixed;fillColor=#fff2cc;strokeColor=#d6b656;container=0;" parent="JCmSJYvO-XVCD5mwtdUW-5" vertex="1">
          <mxGeometry x="23.86129909365559" y="88.00020779220776" width="28.166649350649347" height="28.166649350649347" as="geometry" />
        </mxCell>
        <mxCell id="c6foWVuKoWLp02Q5EuhB-210" value="" style="ellipse;whiteSpace=wrap;html=1;aspect=fixed;fillColor=#fff2cc;strokeColor=#d6b656;container=0;" parent="JCmSJYvO-XVCD5mwtdUW-5" vertex="1">
          <mxGeometry x="92.85697885196373" y="87.99703896103892" width="28.166649350649347" height="28.166649350649347" as="geometry" />
        </mxCell>
        <mxCell id="c6foWVuKoWLp02Q5EuhB-211" value="&lt;font style=&quot;font-size: 18px;&quot;&gt;k&lt;/font&gt;" style="ellipse;whiteSpace=wrap;html=1;aspect=fixed;fillColor=#fff2cc;strokeColor=#d6b656;container=0;" parent="JCmSJYvO-XVCD5mwtdUW-5" vertex="1">
          <mxGeometry x="56.34444108761329" y="52.00327272727267" width="28.166649350649347" height="28.166649350649347" as="geometry" />
        </mxCell>
        <mxCell id="JCmSJYvO-XVCD5mwtdUW-6" value="&lt;font style=&quot;font-size: 30px;&quot;&gt;&lt;b&gt;Large Language Model&lt;/b&gt;&lt;/font&gt;" style="text;strokeColor=none;align=center;fillColor=none;html=1;verticalAlign=middle;whiteSpace=wrap;rounded=0;" parent="1" vertex="1">
          <mxGeometry x="544.57" y="365.35" width="339" height="30" as="geometry" />
        </mxCell>
        <mxCell id="JCmSJYvO-XVCD5mwtdUW-9" value="" style="shape=flexArrow;endArrow=classic;html=1;rounded=0;fillColor=#fff2cc;strokeColor=#000000;strokeWidth=2;endWidth=29.529085872576175;endSize=8.621052631578948;width=18.947368421052634;" parent="1" edge="1">
          <mxGeometry width="50" height="50" relative="1" as="geometry">
            <mxPoint x="667.7700000000001" y="420.35" as="sourcePoint" />
            <mxPoint x="667.7700000000001" y="513.35" as="targetPoint" />
          </mxGeometry>
        </mxCell>
        <mxCell id="JCmSJYvO-XVCD5mwtdUW-13" value="" style="shape=image;verticalLabelPosition=bottom;labelBackgroundColor=default;verticalAlign=top;aspect=fixed;imageAspect=0;image=data:image/png,iVBORw0KGgoAAAANSUhEUgAAAMgAAADICAYAAACtWK6eAAAAAXNSR0IArs4c6QAAFmhJREFUeF7tnW+MXcV1wM+8td3USMVVvBE2FfscFWXNoyElipsPuN79XCqDP0UYsruRFwmpFa3yoUItvLtpU0RaaGkrNQU33l3/Ec0HE1dETdpKXkMaYUiTIgPrFLDfkmCbeJ0uf2wS2H23PvftXT+/vX/mzp25c+bec6XIxJ5/98z5vTPn3JkzAvhhCbAEYiUgWDYsAZZAvAQYENYOlkCCBBgQVg+WAAPCOsASUJMAWxA1uXGtikiAAanIRPNrqkmAAVGTG9eqiAQYkIpMNL+mmgQYEDW5ca2KSIABqchE82uqSYABUZMb16qIBBiQikw0v6aaBBgQNbnlq/X5L9SDBpZqQyBgIPhvXwwFfwro/Bus/NndV2vl//jQ+e/a8p++3wIf5oK/66u14PkDM/kGybU708GPWQkEMKypQ7u9I4BAQAcE8w8C0woAavvHGBo1gTMganKLr4VAtGsjnQLC0918zvauhubFQ5M52yt9dQZExxSHUBRrIXSMvHXZos0EFoZhiZQnA6KqZiuWQozG+AuqLduq14FFiCn2X65MAQOSVR0RDL+veXl9j2CU9WkB+JNQqx2rOiwMiIyKG7QW9U39UN+0EYY+uzUYycB1G1dGVN/cv2p0rTPng7+bOzcPrbPzK/8e/v3MD2dl3ihLmRbUxFhVQWFAklTlChi5nW0EASFAGHbcuhWGbu0Aoftpne0ANPPfs3DsRycBwdEETSVBYUDiNHTbXc08USgEYvT27UZhkIWrFxqEJ/w72TZWygmYBLE0Ac8/deWbTOZG3KnAgPTOVQ4wQihGfm874H9TfRAOXJ5Nffs5mHzmWZVhLvso7amyg8KAhOrx+buHoO3vyxqRCqFo7tmlomjW6yAs4XJMAZYOKC8cmrD+IoYGwICgYBWshje+C6hbiqw6E8KCliWj31Ja/6TagAROeN9RWavhurXIAgzCMvaVJ7KAUkprUl1AMliNKoHRCxFakoknD2cDpbY0XBbfpHqAoNVY6tsnu2kQl1Ku+hdZLEZaWfRPJvY+LRv9Ko01qRYgHUccl1Spz+jtvwvNPXeSjkalvoTmAqGPIg+K77nuwFcHkM/dNQpCYJQq8cHl1L6H7jX2IS+tfxf+HUFBR9578rDMcFvg8JKrGoBI+htoNfY9eK/MpHMZ/Fr/w9nAkZf46OgsJOUH5HO7j6b5G2w11HnPEO1yEpJyAyIBB+6JOvqPf6quIVwzsCCSSy7nICkvIBJw8JJKL90IyvB9f5m25HIKknICIgEH+hoICD96JVA2SMoHSAoc7G/oBSKqtTJBUi5Afmf3vqSTfgyHeTjCHqQheeHgluJGlb2n8gAi8REQnXFTB5Wyi778NaQiXHi+5PjBMarSKAcgDAdV/Qoc9tRNj74/RjWrSjkA2bb7dNKOXLYcdvmRgIRsZMt9QFKccobDLhwZfJIWEPRH3AYkZQsJh3JpwBGOAremDN/31fhBEfRH3AUkxe/gL+S04AhHM7H3cPImR2L+iLuAJCytGA6acOCopPwRQkstNwFJ2bp++lt/w+c46DISQJK4JYWQFXEPkM45coxaRT7slBMmo2toCMmWO/44brBkHHb3AOGllRsESIxy7M+fiM/LRcRhdwuQFMecl1YSWkmoSKoVIXAS0S1AEqwHh3QJaX6GoWAyCLQkkQ8BK+IOIAnWg6NWGTSSWNEUh916Qjp3AEmwHuyYE9P6jMOhbEXcAMRx6zG/8BFs3LA2o9pUp3jKtxGrES03AHHIepxsXYTzCx/Bt4517ulAOPBBQPB/W+vXwG23bGBgeviPtSI+zMCLB4dt/Vy4Aci23X6UgCidKUcQnjzyFpxsXZKay+2f2QB37OhnULqkhfu0ViXNrolhm7db0Qck4ZQgFd8DrcbDU3NSYHQXQosyvnMzDNavyVy3jBXC7CiTzzwHi0vtxZ++PT9u+5wIfUBiznpQiVw99z8LsPfImVz6umfnZkCLws8qCQwLIWZsyoU2IAl7rih891C1HFET/uj9N/Jya7VgPCGE1ct5aAOSsLzyjx+w+cMS9D0y8aq2MeBy64GROkNytURbQgirSR1oA0LYOcco1dMznUiVrqfoUHDYH0bVMLpWdP8ycrtsQazqqNXOEwWUsLyi4JzrtB4yimK6DGELZtUPoQsI4eUVhnS//PhrpnXWSvsEAwZW/RC6gMREryh8+zCxvLJCQ0ynxCCZEULwh8JVcxXjf1CIXpUdEJyLO4f6gw+ZBB6rjjpNC5Lgf1A48/HwVEv6izkBBVMeAiFItgghWsovkqMiTUBi/A8qHwfxwyB+IKzCQwQSa446TUAI+x8IRZUAIbLcsuaoUwUkcnMiBf8DFUbH9hLXrA9aEou7kK056vQASchaQsH/CBUbw7zhVnbXlF11vBYhseao0wMkwUGnsL0kVK6qLbPC97a0TZ8BWflVi8m3i5ffoAWh8qD1wGiWTivywMgAbNywzvgrzi98CE8eOaM89sH6ehjfeb3WrSm4bP3x3CU4v/BhMK7wFGZ4yOzIzIUtk97WwiNZ9CxITASLwgfCXs3V+T2k6GhRXsB1QYJgoBxlfmh88Gf6oG+sSFDoARITwfLGd0Fzzy7jv65ZO9ABCSob7uQt+skLSd79W8rfkwR4081GIdvgnQGESgQrSonzQFK05egdvw1Ish5PjvzhKAgSBkTTz3aWpULYJfocFI7bFg2JsuXonasCIKEISOQ3EApb3GVYQlC+99LCiqPZWwejQJ8aWE/yiG2e0LXsciuPtY2Sfw1qRp13BkRG6xXL4JFcfDANENUDSb2vlvfXHf2ppEc264usyNFx3+/dbGy3rzOAUPpIKDt5rpZz7RtPDdrDk95vGUnuQAsQR76iu6r4WcbtFCQGfREGJIvWVKysbn/BlPhMLrOIAXL3ELT9o1GCpLTNxNREU2zXFUimvYYRXTbSqPJEO7IPS/n9HK3oAiSVBoTaPixH9TzXsKlDUg1AiJ8kzKVhJaiMkOB3Hpl9UwW/bmvaaxhJMEdsibX7KAgY6hUuxY2KBSsAme4oQlINJz3hkhzK+7DIaG6BA8EPoHm2y2sfaunDvHx7rXadMd0gLrPQmsy2LtpechlbXqEM7S+xEj4O4gCpZDIxrXAutx9uqZF5B+2Wx6D1oAFIwvVqOEBXNinKKAeX6VxJp/EkplHrYR+QFDgoHZLC6M2FdzpHQfHB3asfv3Yt9G9Ya33LetTYBgfWB8d3KWZs1xQybtWgNmz6dKG9JVbM2fPwV5bC0ipcZ6clicMdrEVfIRBuq0/bHavraKxu66dyfqZrDK0atMdMbVDsflc7gKQ45RTgUPmVK0oZVbakW0zZE8uWSjRMAExOeY0x3cDGtWcHkISlFQU4VBSwW8CmsqPnPapaFMBZlRdBefrY+cR8xzdc97Hv/fTcpQeLsBp2LUjCvR8UnHJd27x13zmoy7mVPfmXVcl1le8+ZIZtdh00GxNCTOrqR7adYi1IytLKdsRKZ0pR3YqY16p1K4TtRBGyytlTzkqG92IBIb600n2tGi5p+iUTwSVFm9B6pAUKsiqdbguXtf+s5W3dVVgcIAlb2Sns1lVxyrNOMqXytnJxKcqgAsmrY26MouB34BjyZPRQnHTr1RyyIpNCiMIiV8U76QmOOYWoVZkv5Uyi0FS0zQD5Vhx0fA/zS6yUvVYUspVg5OThqTkD80q7SYecdSsOejGAJDjmVLaS6Ixe0Ubi6tFhEju0IsQfa8sr84AkhHUpOOahYjAgpBGxtrwyD0iC9aB0CIqXWKQBsba8MgtIgvWg4Jh3qwQDQhYQazdLhRIx56QnRK5sfzGPUocqhnmnmjeRJWN5YFaXV2YtSMx3D2rWI9SQqn0oxC/3+B2E+GN1eWUOkATrQcn36FUO3VYEo0S33XLtSjeY5V3lwbv7dG81oXI3SYI8rEavzC6xYq5Rw04ppxDVaUV0/0Lr3KzoyDaTYSFEbMb2UW+2vgTtoT5otwDWBJd7mjhdqN8HSdhzRdl6hL8Yura76/6F1rnd3YGlVeTeq3u8V0YFQPMyC5EXOmJ+LAAxtd9raNsWbwCQ6ORv1K1Ht6nP+2utG45wbCon8LrfC63a+M7N1s/QSywzr3LOvzjxShN8GI0Do7e9zm24/oSOw1X6AYlxzl3LjqiSQbAIBVS1JI4sqwJd797afo/38lEBYlW2TQnIwAcYy2tN9AKSsLyiGNpNE3J4FDS82D6uPIJxx47+Qu8dlDmmiuNFMO7c0e+C1QjFu2I98sCxMlc582bpBaTEyafD1DqYSTA8BIWXceKD0SpbD4Jycu5S0H3v2Fy5F7FbdqH1WF5WeTrkmueKNr2AxESvXFte6ZiUsrVRREb3hfcW//ar35h7HKNTAmCfRhkq59DSDUjkFc64MbG+aSMMfXYr7Lh1a5BOlB/6ElDxw8i+leJSqxBAooSG0ATA/PYg1Df3MzSENCtveiFCr7IyFNUrEvQCkpJKNElwITBoadjK2FOxMp+urEFtS9aPiXoBSUnrk2XaERh82MpkkVq+smWGAyWjEvbVCwiOIiHUm2/6AEJfpjm+i5dkeYXZU7/scASvq+CH6AcEBxKcQ6+NXB6RljBdry4gKKO3b4fmnl2a1aSazVUCDlKAdOsZwrJUG4Ka2AF+cP9g5D6arKpJ6chu1rFTKl8ZOMgC0qsN3cC0oR51aaesArn4dV723YooVyk4yPggWWcWgYE1dVhq15etDG5Kk3oopAySGijBQlWDA6dA5S51Mz5IXoWQtDIMiJqgqwgHAChd10YTkF4fpt13OkoVGJDsgOSFQ/eVbvMLHwWHnSIeLb7qSrsKEayO20L9ScjMSPl0IkWx5oXDQKrSyINReFqwDe2jugI6qtbDEUDuHoK2j8Ja9TAg8hgShAMHH3vuvJy7eeXnS75kwtd5BkROjEThwMEnpvXRAUmere5sQeT0y+lShOFIBQQLZD1u2zVZWm7CdcAH4SWWKqHE4cDXksp7NeqdGFoC0ZQ9eos34QqoTWTdmBglZwZEVfuI13MAjqvOnsuIE0HxoTbSBr8uQGCUayXShVC0AY71QW1GBxjheBgQmZlRKBMmervwTidZ3MevXQv9G9bCxg3rQHeotHd4LsCBkSUhxBYF0RZahQHRKG5UzPAUXlKzeIYdkzyYAMUROBIjWBqnJHdTDEhuEXYaUEk4hzc83XbLBm2gOAQHA6JJ75a3zkd/SacQ5s17PBXT8ozvvD43JI7BgerhXc5gMqFNTww15IAFwbMldLea5M3CiPOKS60HRurKkDgIB7629asNZJhiQGSkFFNGZ7Jr1Qs1KcLx8qmLcOL196F15gM4d+HDQHq/sq4W/AB88vr1cMtvXgM33rA+MTl1jmnRWpUBURRnXsWM6hYhwWhXlgd9H9VH996q46+8C888Nw9vvv2L1CGtW1t78ZeLSw/ub9783dTCFgswIIrCV3HKFbsyUk03HP/8r2fg2R8tZB6rAPG1Ke+mP8lcsaAK9AFBQcQkxLZ1otCE9ShovoNudMLRbvvw6KE34eU3LuZ5hf3TXuOLeRowVZcBUZCsTt9DoftcVXTCgQP5+2/+BH4w+16uMS1X/odpr/GHOhrS2YYrgOCBqVUHaGxZEFcB0Q3Ht/9rHr75nz/TqY/3THuNAzobzNuW04DYurHKRf9DNxzvXlyEP3rsNVhqR6ZjVtXL09Ne45OqlU3UcwOQmJSm3vguK7mxXANENxyoiKasqBDwpalmQ2dm91zcMCAK4nMJEBNwoMj+7Oun4CcS4dzs4vWfmfZu/v3s9czUcAOQmIt5bN07gjt183x/MDOVq1s1Bcd7lxbhD/7qf029xsK01/h1U41nbddpQPCeEXTUi37wVqeHp+aK7jZTf6bgwEG88dYH8JW9kYlmMo0xrnANYNOk1zinpbGcjbgByLa7mlF5fm0BgjL/8uOvQRG3LmWd3yIuEj3xxvvw1wfezDo06fLtvr7BAw8O/li6gsGCbgASkzHeZn5eE04q7uwN7z/MOucIBm5TKeK+xFdPX4RHps1Z0DbAjQe8xutZZWCivBuAxGQ2sQmIbivi0jXN6Jyjk27qWXOp79e+8bVBLV8f847RaUDw5W2eCVG9s7x30vDX/9H7b8w7l4XV930fvvQXs9BuG+ny9WmvQUYYjgASfybE1tf0UDXyQlKEz2BCjR879Ca89Nr72psWAF+f8hr3aW9YsUE3AMGXI7ZhsVveqpDoOk2oOPe5qn3/xDvwT4ffytVGVGUBSzumvE8/q71hxQbdAYTY1/QoeeP3EXTe06JbaDUwaUMRDrWiXkhVaz5xClpn089+SDXWKXRk2mvckaG88aIMiAER43eSk3OXYLZ1ZQs4RqcQjMGB9TBYv8ZAr8U3+eqpi/DIfm3RrF/WYM1nJr1PnSz+TeJ7dAcQgt9CKE2krbH8+/Gfw8HvaPimJ8QXpps3/Yut94jr13lAbId6qU2ojfH82/cvwFP/8bZy1wLEyJR307RyAwYrugMIZ3k3qAb5m/7B7Ltw6LtvQ5hJUqpFAS/5Yun+/Q99+phUeQuFHAKEbqjXwryR7HJxyQe0Jng2/Wf/18lmEvX4IE6A7+/dP9H4O5Iv0jUodwDBQRMO9VKf6KLHN3f2F9A6+wH8/N1F+GjRh3VrRRCkuOETH3trYPOv/kbR41Htzy1AHAj1qk5Eheo5kbQ6nI9SAGJzV2+FFFvXq0beS6ircd3tuAVITKiXI1m61cJoewyIMfEWHMlqnT2/8iqts/PBf7fOnIe5c/MwcN3G4P/jqUZ+MkmAAckkriyFE66Ejtu0GCp5t4Jjl6jkgcJ3KX74/7vBSBseWq/R27dbSR6RNjai/86AGJ2Ybbsjc2ShotY3bbyi8F2//kbHs9y4rfPxRbyb5j4YEM0Cvbq5mEiW0T4lG7eVhkhyeFSKMSBGZyLBDzHar0TjaMX2PXQvYFSNn1gJTAohxlyRj1tRLJRqxw85GpWKlILQOaKWOgsMSKqI8hZIcNbzNi1Rv9VVZlW+YPw326ccJd7BZhEGpBDpq1uSjoL70Pmztvyn74d/3zng0FdbBmGxBc8/1Q1F5/USlnr84TJRAxiQQgAJl1uwpg5L7ToIGFjp14e5qxQc/yFKyfMONCFgwFaEfZC86uV+/YSlHke0GBD3FVzHG8RYEV5mMSA61Mv9NmKyPgZuznFSd8FQkTX7IFRmopBxKGx/KWRcdDthQOjOjaGRxWx/YT8kUt4MiCE1pNss+yFZ5oYBySKtUpQlmH2esFwZEMKTY2Zo7IdkkSsDkkVapSnLCSVkp5IBkZVUqcrFOOq2rqomLFve7k54cswNjTOuyMqWAZGVVKnKEbuJl7BsGRDCk2NuaJxcW1a2DIispEpVLibUu+X6T3zn1OHHHtH0rqu33WtquKhmhBBOvYN7JwqLmsms/cSGen0PXjg0kbU5Lk9DAgyIznnotSICJuH4QWfOX+sURVnaYkB0zyRaEjzE9fyBGd1Nc3vFS4ABKV7m3KNDEmBAHJosHmrxEmBAipc59+iQBBgQhyaLh1q8BBiQ4mXOPTokAQbEocnioRYvAQakeJlzjw5JgAFxaLJ4qMVLgAEpXubco0MSYEAcmiweavESYECKlzn36JAEGBCHJouHWrwE/h/zirVffaMkegAAAABJRU5ErkJggg==;" parent="1" vertex="1">
          <mxGeometry x="431.57" y="323.85" width="113" height="113" as="geometry" />
        </mxCell>
        <mxCell id="JCmSJYvO-XVCD5mwtdUW-14" value="&lt;font style=&quot;font-size: 30px;&quot;&gt;&lt;b&gt;Large Language Model&lt;/b&gt;&lt;/font&gt;" style="text;strokeColor=none;align=center;fillColor=none;html=1;verticalAlign=middle;whiteSpace=wrap;rounded=0;" parent="1" vertex="1">
          <mxGeometry x="544.57" y="365.35" width="339" height="30" as="geometry" />
        </mxCell>
        <mxCell id="c6foWVuKoWLp02Q5EuhB-143" value="&lt;font style=&quot;font-size: 23px;&quot;&gt;answer(program)&lt;/font&gt;" style="rounded=0;whiteSpace=wrap;html=1;fillColor=#D1E3F5;container=0;strokeWidth=2;" parent="1" vertex="1">
          <mxGeometry x="1854.0001416765053" y="1180" width="284.78571428571433" height="48.75" as="geometry" />
        </mxCell>
        <mxCell id="c6foWVuKoWLp02Q5EuhB-138" value="" style="rounded=1;whiteSpace=wrap;html=1;dashed=1;container=0;strokeWidth=2;" parent="1" vertex="1">
          <mxGeometry x="1097" y="730" width="1214" height="153" as="geometry" />
        </mxCell>
        <mxCell id="c6foWVuKoWLp02Q5EuhB-185" value="" style="shape=flexArrow;endArrow=classic;html=1;rounded=0;fillColor=#fff2cc;strokeColor=#000000;fontSize=12;" parent="1" edge="1">
          <mxGeometry width="50" height="50" relative="1" as="geometry">
            <mxPoint x="1444.9990318772138" y="818.41" as="sourcePoint" />
            <mxPoint x="1528.159598583235" y="818.41" as="targetPoint" />
          </mxGeometry>
        </mxCell>
        <mxCell id="c6foWVuKoWLp02Q5EuhB-159" value="&lt;font style=&quot;font-size: 35px;&quot;&gt;&lt;b style=&quot;&quot;&gt;&lt;font color=&quot;#3333ff&quot;&gt;(4) Computational Enhancement&amp;nbsp; &lt;/font&gt;&lt;font color=&quot;#ff3333&quot;&gt;(Sec.3.3)&lt;/font&gt;&lt;/b&gt;&lt;/font&gt;" style="text;strokeColor=none;align=center;fillColor=none;html=1;verticalAlign=middle;whiteSpace=wrap;rounded=0;container=0;" parent="1" vertex="1">
          <mxGeometry x="1384" y="748" width="723.81" height="30" as="geometry" />
        </mxCell>
        <mxCell id="c6foWVuKoWLp02Q5EuhB-144" value="" style="shape=image;verticalLabelPosition=bottom;labelBackgroundColor=default;verticalAlign=top;aspect=fixed;imageAspect=0;image=data:image/png,iVBORw0KGgoAAAANSUhEUgAAAMgAAADICAYAAACtWK6eAAAAAXNSR0IArs4c6QAADeNJREFUeF7tnU1uGzkThotuzTkirxLvYyBAPIh9iBiYla1baGd7p1vYWQ3gHCIyxgECOPskq2jO8UniF8rqjKJYIoviX7Neb+an+ftWPSqSzSYV4Q8KQIGNCihoAwWgwGYFAAi8AwpsUQCAwD2gAACBD0ABPwUQQfx0Qy4hCgAQIYZGN/0UACB+uiGXEAUAiBBDo5t+CgAQP92QS4gCAESIodFNPwUAiJ9uyCVEAQAixNDopp8CAMRPN+QSogAAEWJodNNPAQDipxtyCVEAgAgxNLrppwAA8dMNuYQoAECEGBrd9FMAgPjphlxCFAAgQgyNbvopAED8dEMuIQoAECGGRjf9FAAgfrohlxAFAIgQQ6ObfgoAED/d6NXw736PemeadF8R9TXR4p+exQXLpokmpjBFNDH/rkiZ/767H70dB6tEUEEAhGHsFgoifcnIVkTSJThjReodYHE3CQBx0OoRjOaaiI4dkhefZBlZBgDFbioAskWjLkcMu+l/xEGimxnNrj6N/loMy/D3uwIAZINXGDgaaj6UMK+I6bgmmsxodgJInlYZgDyhy9Hw/TGR/hDTMUsqeznkurkfvb0qqV0ltAWArFlBGhy/dl9dApI1RUqgtJQ2yIZjMScxy8KYvK84JCLIUozlStX3UmDN1Q7MSRBBnvS9o+GtmXNUsYy7K1wGko+j0/1dy6khPyIIEf05vD3XROY9B/6WCiiiwT+j0xvpggAQIno9vP1e+3Iu19ERRR4VEw/I0fD9hevWEeM0e0RXmtRkStPFy7Ue9fqa9NmPvU/nXCcsPb15kfhxdDoovZ0x2yceEPfosX0JtMZhGqKI8AjCcOrx/ej0xPZL9Xp4e11fJFEnkvdsiY4g7g7t9gKtxvco0odZ0gFxmpy7rujU+C5F+jBLNCBHw1ttGzYt1zKchhk1AmL6P6XZvtTNjGIB4QyHXCMIp0w3MEtJJXceIhYQxgTdrIY7beLjlVmK87u0A4C4qFRVGqYzC17FWix1in2rLjaCcF4QusxDap1/LPvuFEGr+gX9b8tNjd2y94kLyLZdrrV9s/67em5DTLvq3UuBCMKwWfvlXXuMjgHjD2qO69/oCEAYblJHUm4EqaPXvr0AIL7KdTYfAOGYDoBw1KoiLQDhmBGAcNSqIi0A4ZgRgHDUqiItAOGYEYBw1KoiLQDhmBGAcNSqIi0A4ZgRgHDUqiItAOGYEYBw1KoiLQDhmBGAcNSqIi0A4ZgRgHDUQtoACrTbVOZEb8r/jh2ABDA5ivBVoPxoBkB8bYt8gRRwP0AiUIWsYgAISy4kDq9A2d+TbAZEf3nVn+9Nz2yK6Ln6V5NuD9ubqINPnbjVSux2d5tBczwvN4psBuR/X14e7ynFvmxIE42V0uP5nO561CsWGACSg4QNdZZ76EN4QNYkmGhNVw0149IiCwApCJByh1nRAWmtUBwonQDkvy/31DOjpCbdr/g09gLvKEkGyAIUM/xqdDMoIZoUC0h7BfOPid15xTAUFL+2NSUtIMuWTPZ0c5IbkuIAqf8AhI4w8UszswDyGE00DXoHD9ku8ikGkDZiuN7V0UU3626b8wGSG5IiACl39aa7Lh225XkBMX3Z081+juFWdkDK32YR1tW6WVp+QMjc7pVhTpIVENws2xVcigCESOnL5vnnq5SqZQMEkSOlmXetqxBAMgy1sgCCOceuDps6fzmAkKKb5vlDsotFkwMCOFI79+71bTvd3Xcv1i6tSjlhzwDIrdnYVuDb4l1MVnfe0gBJGUWSAsK8k6Nur+tU7zZfoJMjghjpmhcPSXw3SSWtL2DVqlNU/GzstjsKcwGSapiVDBBEj27CYVp9Pzrd6Ce5AEm15JsMkHI/Buqu46Zoue2e9FyAmB2/vRcPJ7E1SAaI+5XLsbuM8jkK2O4nBCAcNTekxfAqgIiZitg2vDJNygWI2XrSvHjYjy1LkgiC4VVsM8Yp3xY9TK3TL4fnStF1nBZsLzXFShYAyWHZjtRpix6mG7NvLy9Iq8scXaoGECzv5nCf3ep0iR4AZDeNf+Z+Pbz9js9mA4mZppjx/ejUaYVo9u3wmjSdp2nWr7XUFEF0DgFRJ1+BbffBP1Xa7OthNtsCEL59kWNnBTZvK1kvenGqopp937lKzwIAiKdwyOargDscuecfpn4A4mtn5PNQgAfHApCvhyZ69D0qC5IFgASREYVsU8DMORSpwf3o7ZijVMYXhD+bCUA4FkNaDwX8rzXIHT0wxPIwN7I4KzCe0mzwafSX1xUEJUQPAOJsayR0UWA5lLqZ0vSdLxhtPSVEDwDiYnWk+U0BA4L5nz/uPZwsoZiEgKKtaPr18IMq5JNpzEEyArB0tLEiZRzuzjSFO5HN2PwoVefcd/VUhwBIFDPbCl1svLuTDsO6SqXMO1bbBUBsvhzwuflybkazq13H5wGbVExRpUWOVhgAksBFuHuPEjSpqCpKmnOsCwNAIruK7XvryNUXXbwZUimlLkqZkGMOktxd/F+SJW9qwgofr3WeXeTaws7pKiIIRy1WWv6+I1bxHUy8+HR2j950AQzMQaI6GCKHiRJTmvYVqX7XoMAqVlQ4yPlLOZdmtL+6WtPqrbvZdre6tLmmNBhiBbSmWa36ODrd6ZiYxbuAPXVGenH4NkAIaB+fogCIj2ob8/jPO8yQZKZm1yWv6ASVqiOFAZBwhvIeWuU8lCBc9+ssCYAEsys/eiBqBBM/WkEAJJC0LgegrVZV4r6jQFJUVQwACWBO7tvynEdpBuiuqCIASBBzuw+vEDmCCJ6sEAASQGrX4VXuM54CdFVcEQBkR5Nzhlcl71rdUYZas9dz/UGuy3NcASn1e4daPTtQvwDI7kK67bvKeb7s7n2UWUJVV7DliiAuR/gjenQUMKUvm+efr2K3PtUFOlmuP3ACJOPp5LGNW3P5c61P/jj4zDoN0kePJIDku0Bn+xIvVq58XKaMPClWsExPkwCS747C7YBgeFWGs3NbkWr+kQyQo+H7CyKd4R47CyCZTyfnOgbSLxVINP9ICcgxkf6Q3sCbAcHwKr01AtWYZHm3bWuSIZapLM88ZDMg2FYSyF0TF6M1DXoHDzepqk0GSJ55yGZAsCkxlYsFrSdp9Eg2xHqMIO8zDLM2A4IJelDHTVJYqqXd1c4kiyB5hlkAJInnJqgkBxxJI4ip7NXw736PmoS3ogKQBL4bv4qEq1brnUkaQUzlaeciACS+98atIeU7j6d6khwQE0UaaswlLAmOzQEgcd03cukZI0fyZd5VKdMNtQBIZBeOVnyuOUf2IVbbgD+Ht+ea6DqawouCAUhcfSOUruhmPtfvUmxEdGl98iHWaqPib0EBIC5OUEIaM9fQWl+VAkbWIdb6cCvenASAlOD8W9owIUXjkiJGMUOsNJB0DxDzS1q4U3s1T6nH23eJ9ETP1b8NNWN18MnrnnavBnhmyjrE+n3i3jvTpM/DrXB1D5A93ex3wXE8/a1z2YoBpFXucYWrdxZme3z3AEm9Ga9zHpu4wcUBsgaKeVfyxj+qdA8QKmDtP7EPFl1dsYCsq7aMLH1FevGCUZN6ZlN2StN3m651LnmzIoZZNsume94ZQEJLUjIgiCKhre1fHgDx1y5uTgy14urrWDoAcRQqR7L25VmPehOsbOWwQKJTTfJ0bXutRQ+xShNMcDRDBCnNGUtsDwAp0Spx24QIwtAXgDDEqiQpAGEYEoAwxKokKQBhGBKAMMSqJCkAYRgSgDDEqiQpAGEYEoAwxKokKQBhGBKAMMSqJCkAYRgSgDDEqiQpAGEYEoAwxKokqQBAJlrTVfvlnjmsW5HqK0UXxD1yCYBU4vWMbtQMyLbD1pbXPpirKNzPJQMgDM+qJGnNgNi+J2GfbA9AKvF6RjfYTsIoO2tSR2eecW7Xciwza78jVS52s2KtgLh+0z77dnhNms5d/Mq1TJeyupZGLCC13jDlemQn5wfCtcyuOb9Le8UCUusdhbb5R+sUnB+IVFcuuzhs6jRiATFCs8bhqS3jWZ8rIIxFiuTXnnl2PUo22YAwxuFR1I9QqOt8wRkQwRN0Yx7RgHCGGRF8OU6RDg7NGV5Knn+IB6TWYda2KLL8UTDXTri8KBQ9vAIgZh7y7eUFaXUZ5+c8X6mrJ6Isfghodqz29DNWXx2iUb4epqlZ9BCrlbjGyXoA9xEfPRBBll5UaxTZCRJEj4V8iCAtJJytFzt5XicyI3oszQRAlkJ47XLthK+zGwk4ViQDICtiMFd42J7XhQzSl3XXbQRA1hSRPB9xfcnYBdBDtRGAPKHkciMf/8u7UFbJUA4ix9OiA5ANzihouDWZaz0o7frlDL8RT1YJQCyW4Hw3UYpRnduh6KZ5/jBwTi8wIQBxMPriwAOlLhTRsUPy8pMouin5bvKSBAQgDGusgGL2MbnsZWKUniApwGCLDEDYkj1mWMxR9uiN1moRVVbudi8BnIkmmihFEz2nu/boH8+uis4GQESbH523KQBAbArhuWgFAIho86PzNgUAiE0hPBetAAARbX503qYAALEphOeiFQAgos2PztsUACA2hfBctAIARLT50XmbAgDEphCei1YAgIg2PzpvUwCA2BTCc9EKABDR5kfnbQoAEJtCeC5aAQAi2vzovE0BAGJTCM9FKwBARJsfnbcpAEBsCuG5aAUAiGjzo/M2BQCITSE8F60AABFtfnTepgAAsSmE56IVACCizY/O2xQAIDaF8Fy0AgBEtPnReZsC/wfPBlUjWUqQQgAAAABJRU5ErkJggg==;container=0;" parent="1" vertex="1">
          <mxGeometry x="1957" y="785" width="63.35" height="63.35" as="geometry" />
        </mxCell>
        <mxCell id="c6foWVuKoWLp02Q5EuhB-146" value="&lt;font style=&quot;font-size: 23px;&quot;&gt;&lt;b&gt;python&lt;/b&gt;&lt;/font&gt;" style="text;html=1;align=center;verticalAlign=middle;resizable=0;points=[];autosize=1;strokeColor=none;fillColor=none;container=0;" parent="1" vertex="1">
          <mxGeometry x="1941.1741912632824" y="832" width="95" height="40" as="geometry" />
        </mxCell>
        <mxCell id="JCmSJYvO-XVCD5mwtdUW-15" value="" style="shape=image;verticalLabelPosition=bottom;labelBackgroundColor=default;verticalAlign=top;aspect=fixed;imageAspect=0;image=data:image/png,iVBORw0KGgoAAAANSUhEUgAAAMgAAADICAYAAACtWK6eAAAAAXNSR0IArs4c6QAAFmhJREFUeF7tnW+MXcV1wM+8td3USMVVvBE2FfscFWXNoyElipsPuN79XCqDP0UYsruRFwmpFa3yoUItvLtpU0RaaGkrNQU33l3/Ec0HE1dETdpKXkMaYUiTIgPrFLDfkmCbeJ0uf2wS2H23PvftXT+/vX/mzp25c+bec6XIxJ5/98z5vTPn3JkzAvhhCbAEYiUgWDYsAZZAvAQYENYOlkCCBBgQVg+WAAPCOsASUJMAWxA1uXGtikiAAanIRPNrqkmAAVGTG9eqiAQYkIpMNL+mmgQYEDW5ca2KSIABqchE82uqSYABUZMb16qIBBiQikw0v6aaBBgQNbnlq/X5L9SDBpZqQyBgIPhvXwwFfwro/Bus/NndV2vl//jQ+e/a8p++3wIf5oK/66u14PkDM/kGybU708GPWQkEMKypQ7u9I4BAQAcE8w8C0woAavvHGBo1gTMganKLr4VAtGsjnQLC0918zvauhubFQ5M52yt9dQZExxSHUBRrIXSMvHXZos0EFoZhiZQnA6KqZiuWQozG+AuqLduq14FFiCn2X65MAQOSVR0RDL+veXl9j2CU9WkB+JNQqx2rOiwMiIyKG7QW9U39UN+0EYY+uzUYycB1G1dGVN/cv2p0rTPng7+bOzcPrbPzK/8e/v3MD2dl3ihLmRbUxFhVQWFAklTlChi5nW0EASFAGHbcuhWGbu0Aoftpne0ANPPfs3DsRycBwdEETSVBYUDiNHTbXc08USgEYvT27UZhkIWrFxqEJ/w72TZWygmYBLE0Ac8/deWbTOZG3KnAgPTOVQ4wQihGfm874H9TfRAOXJ5Nffs5mHzmWZVhLvso7amyg8KAhOrx+buHoO3vyxqRCqFo7tmlomjW6yAs4XJMAZYOKC8cmrD+IoYGwICgYBWshje+C6hbiqw6E8KCliWj31Ja/6TagAROeN9RWavhurXIAgzCMvaVJ7KAUkprUl1AMliNKoHRCxFakoknD2cDpbY0XBbfpHqAoNVY6tsnu2kQl1Ku+hdZLEZaWfRPJvY+LRv9Ko01qRYgHUccl1Spz+jtvwvNPXeSjkalvoTmAqGPIg+K77nuwFcHkM/dNQpCYJQq8cHl1L6H7jX2IS+tfxf+HUFBR9578rDMcFvg8JKrGoBI+htoNfY9eK/MpHMZ/Fr/w9nAkZf46OgsJOUH5HO7j6b5G2w11HnPEO1yEpJyAyIBB+6JOvqPf6quIVwzsCCSSy7nICkvIBJw8JJKL90IyvB9f5m25HIKknICIgEH+hoICD96JVA2SMoHSAoc7G/oBSKqtTJBUi5Afmf3vqSTfgyHeTjCHqQheeHgluJGlb2n8gAi8REQnXFTB5Wyi778NaQiXHi+5PjBMarSKAcgDAdV/Qoc9tRNj74/RjWrSjkA2bb7dNKOXLYcdvmRgIRsZMt9QFKccobDLhwZfJIWEPRH3AYkZQsJh3JpwBGOAremDN/31fhBEfRH3AUkxe/gL+S04AhHM7H3cPImR2L+iLuAJCytGA6acOCopPwRQkstNwFJ2bp++lt/w+c46DISQJK4JYWQFXEPkM45coxaRT7slBMmo2toCMmWO/44brBkHHb3AOGllRsESIxy7M+fiM/LRcRhdwuQFMecl1YSWkmoSKoVIXAS0S1AEqwHh3QJaX6GoWAyCLQkkQ8BK+IOIAnWg6NWGTSSWNEUh916Qjp3AEmwHuyYE9P6jMOhbEXcAMRx6zG/8BFs3LA2o9pUp3jKtxGrES03AHHIepxsXYTzCx/Bt4517ulAOPBBQPB/W+vXwG23bGBgeviPtSI+zMCLB4dt/Vy4Aci23X6UgCidKUcQnjzyFpxsXZKay+2f2QB37OhnULqkhfu0ViXNrolhm7db0Qck4ZQgFd8DrcbDU3NSYHQXQosyvnMzDNavyVy3jBXC7CiTzzwHi0vtxZ++PT9u+5wIfUBiznpQiVw99z8LsPfImVz6umfnZkCLws8qCQwLIWZsyoU2IAl7rih891C1HFET/uj9N/Jya7VgPCGE1ct5aAOSsLzyjx+w+cMS9D0y8aq2MeBy64GROkNytURbQgirSR1oA0LYOcco1dMznUiVrqfoUHDYH0bVMLpWdP8ycrtsQazqqNXOEwWUsLyi4JzrtB4yimK6DGELZtUPoQsI4eUVhnS//PhrpnXWSvsEAwZW/RC6gMREryh8+zCxvLJCQ0ynxCCZEULwh8JVcxXjf1CIXpUdEJyLO4f6gw+ZBB6rjjpNC5Lgf1A48/HwVEv6izkBBVMeAiFItgghWsovkqMiTUBi/A8qHwfxwyB+IKzCQwQSa446TUAI+x8IRZUAIbLcsuaoUwUkcnMiBf8DFUbH9hLXrA9aEou7kK056vQASchaQsH/CBUbw7zhVnbXlF11vBYhseao0wMkwUGnsL0kVK6qLbPC97a0TZ8BWflVi8m3i5ffoAWh8qD1wGiWTivywMgAbNywzvgrzi98CE8eOaM89sH6ehjfeb3WrSm4bP3x3CU4v/BhMK7wFGZ4yOzIzIUtk97WwiNZ9CxITASLwgfCXs3V+T2k6GhRXsB1QYJgoBxlfmh88Gf6oG+sSFDoARITwfLGd0Fzzy7jv65ZO9ABCSob7uQt+skLSd79W8rfkwR4081GIdvgnQGESgQrSonzQFK05egdvw1Ish5PjvzhKAgSBkTTz3aWpULYJfocFI7bFg2JsuXonasCIKEISOQ3EApb3GVYQlC+99LCiqPZWwejQJ8aWE/yiG2e0LXsciuPtY2Sfw1qRp13BkRG6xXL4JFcfDANENUDSb2vlvfXHf2ppEc264usyNFx3+/dbGy3rzOAUPpIKDt5rpZz7RtPDdrDk95vGUnuQAsQR76iu6r4WcbtFCQGfREGJIvWVKysbn/BlPhMLrOIAXL3ELT9o1GCpLTNxNREU2zXFUimvYYRXTbSqPJEO7IPS/n9HK3oAiSVBoTaPixH9TzXsKlDUg1AiJ8kzKVhJaiMkOB3Hpl9UwW/bmvaaxhJMEdsibX7KAgY6hUuxY2KBSsAme4oQlINJz3hkhzK+7DIaG6BA8EPoHm2y2sfaunDvHx7rXadMd0gLrPQmsy2LtpechlbXqEM7S+xEj4O4gCpZDIxrXAutx9uqZF5B+2Wx6D1oAFIwvVqOEBXNinKKAeX6VxJp/EkplHrYR+QFDgoHZLC6M2FdzpHQfHB3asfv3Yt9G9Ya33LetTYBgfWB8d3KWZs1xQybtWgNmz6dKG9JVbM2fPwV5bC0ipcZ6clicMdrEVfIRBuq0/bHavraKxu66dyfqZrDK0atMdMbVDsflc7gKQ45RTgUPmVK0oZVbakW0zZE8uWSjRMAExOeY0x3cDGtWcHkISlFQU4VBSwW8CmsqPnPapaFMBZlRdBefrY+cR8xzdc97Hv/fTcpQeLsBp2LUjCvR8UnHJd27x13zmoy7mVPfmXVcl1le8+ZIZtdh00GxNCTOrqR7adYi1IytLKdsRKZ0pR3YqY16p1K4TtRBGyytlTzkqG92IBIb600n2tGi5p+iUTwSVFm9B6pAUKsiqdbguXtf+s5W3dVVgcIAlb2Sns1lVxyrNOMqXytnJxKcqgAsmrY26MouB34BjyZPRQnHTr1RyyIpNCiMIiV8U76QmOOYWoVZkv5Uyi0FS0zQD5Vhx0fA/zS6yUvVYUspVg5OThqTkD80q7SYecdSsOejGAJDjmVLaS6Ixe0Ubi6tFhEju0IsQfa8sr84AkhHUpOOahYjAgpBGxtrwyD0iC9aB0CIqXWKQBsba8MgtIgvWg4Jh3qwQDQhYQazdLhRIx56QnRK5sfzGPUocqhnmnmjeRJWN5YFaXV2YtSMx3D2rWI9SQqn0oxC/3+B2E+GN1eWUOkATrQcn36FUO3VYEo0S33XLtSjeY5V3lwbv7dG81oXI3SYI8rEavzC6xYq5Rw04ppxDVaUV0/0Lr3KzoyDaTYSFEbMb2UW+2vgTtoT5otwDWBJd7mjhdqN8HSdhzRdl6hL8Yura76/6F1rnd3YGlVeTeq3u8V0YFQPMyC5EXOmJ+LAAxtd9raNsWbwCQ6ORv1K1Ht6nP+2utG45wbCon8LrfC63a+M7N1s/QSywzr3LOvzjxShN8GI0Do7e9zm24/oSOw1X6AYlxzl3LjqiSQbAIBVS1JI4sqwJd797afo/38lEBYlW2TQnIwAcYy2tN9AKSsLyiGNpNE3J4FDS82D6uPIJxx47+Qu8dlDmmiuNFMO7c0e+C1QjFu2I98sCxMlc582bpBaTEyafD1DqYSTA8BIWXceKD0SpbD4Jycu5S0H3v2Fy5F7FbdqH1WF5WeTrkmueKNr2AxESvXFte6ZiUsrVRREb3hfcW//ar35h7HKNTAmCfRhkq59DSDUjkFc64MbG+aSMMfXYr7Lh1a5BOlB/6ElDxw8i+leJSqxBAooSG0ATA/PYg1Df3MzSENCtveiFCr7IyFNUrEvQCkpJKNElwITBoadjK2FOxMp+urEFtS9aPiXoBSUnrk2XaERh82MpkkVq+smWGAyWjEvbVCwiOIiHUm2/6AEJfpjm+i5dkeYXZU7/scASvq+CH6AcEBxKcQ6+NXB6RljBdry4gKKO3b4fmnl2a1aSazVUCDlKAdOsZwrJUG4Ka2AF+cP9g5D6arKpJ6chu1rFTKl8ZOMgC0qsN3cC0oR51aaesArn4dV723YooVyk4yPggWWcWgYE1dVhq15etDG5Kk3oopAySGijBQlWDA6dA5S51Mz5IXoWQtDIMiJqgqwgHAChd10YTkF4fpt13OkoVGJDsgOSFQ/eVbvMLHwWHnSIeLb7qSrsKEayO20L9ScjMSPl0IkWx5oXDQKrSyINReFqwDe2jugI6qtbDEUDuHoK2j8Ja9TAg8hgShAMHH3vuvJy7eeXnS75kwtd5BkROjEThwMEnpvXRAUmere5sQeT0y+lShOFIBQQLZD1u2zVZWm7CdcAH4SWWKqHE4cDXksp7NeqdGFoC0ZQ9eos34QqoTWTdmBglZwZEVfuI13MAjqvOnsuIE0HxoTbSBr8uQGCUayXShVC0AY71QW1GBxjheBgQmZlRKBMmervwTidZ3MevXQv9G9bCxg3rQHeotHd4LsCBkSUhxBYF0RZahQHRKG5UzPAUXlKzeIYdkzyYAMUROBIjWBqnJHdTDEhuEXYaUEk4hzc83XbLBm2gOAQHA6JJ75a3zkd/SacQ5s17PBXT8ozvvD43JI7BgerhXc5gMqFNTww15IAFwbMldLea5M3CiPOKS60HRurKkDgIB7629asNZJhiQGSkFFNGZ7Jr1Qs1KcLx8qmLcOL196F15gM4d+HDQHq/sq4W/AB88vr1cMtvXgM33rA+MTl1jmnRWpUBURRnXsWM6hYhwWhXlgd9H9VH996q46+8C888Nw9vvv2L1CGtW1t78ZeLSw/ub9783dTCFgswIIrCV3HKFbsyUk03HP/8r2fg2R8tZB6rAPG1Ke+mP8lcsaAK9AFBQcQkxLZ1otCE9ShovoNudMLRbvvw6KE34eU3LuZ5hf3TXuOLeRowVZcBUZCsTt9DoftcVXTCgQP5+2/+BH4w+16uMS1X/odpr/GHOhrS2YYrgOCBqVUHaGxZEFcB0Q3Ht/9rHr75nz/TqY/3THuNAzobzNuW04DYurHKRf9DNxzvXlyEP3rsNVhqR6ZjVtXL09Ne45OqlU3UcwOQmJSm3vguK7mxXANENxyoiKasqBDwpalmQ2dm91zcMCAK4nMJEBNwoMj+7Oun4CcS4dzs4vWfmfZu/v3s9czUcAOQmIt5bN07gjt183x/MDOVq1s1Bcd7lxbhD/7qf029xsK01/h1U41nbddpQPCeEXTUi37wVqeHp+aK7jZTf6bgwEG88dYH8JW9kYlmMo0xrnANYNOk1zinpbGcjbgByLa7mlF5fm0BgjL/8uOvQRG3LmWd3yIuEj3xxvvw1wfezDo06fLtvr7BAw8O/li6gsGCbgASkzHeZn5eE04q7uwN7z/MOucIBm5TKeK+xFdPX4RHps1Z0DbAjQe8xutZZWCivBuAxGQ2sQmIbivi0jXN6Jyjk27qWXOp79e+8bVBLV8f847RaUDw5W2eCVG9s7x30vDX/9H7b8w7l4XV930fvvQXs9BuG+ny9WmvQUYYjgASfybE1tf0UDXyQlKEz2BCjR879Ca89Nr72psWAF+f8hr3aW9YsUE3AMGXI7ZhsVveqpDoOk2oOPe5qn3/xDvwT4ffytVGVGUBSzumvE8/q71hxQbdAYTY1/QoeeP3EXTe06JbaDUwaUMRDrWiXkhVaz5xClpn089+SDXWKXRk2mvckaG88aIMiAER43eSk3OXYLZ1ZQs4RqcQjMGB9TBYv8ZAr8U3+eqpi/DIfm3RrF/WYM1nJr1PnSz+TeJ7dAcQgt9CKE2krbH8+/Gfw8HvaPimJ8QXpps3/Yut94jr13lAbId6qU2ojfH82/cvwFP/8bZy1wLEyJR307RyAwYrugMIZ3k3qAb5m/7B7Ltw6LtvQ5hJUqpFAS/5Yun+/Q99+phUeQuFHAKEbqjXwryR7HJxyQe0Jng2/Wf/18lmEvX4IE6A7+/dP9H4O5Iv0jUodwDBQRMO9VKf6KLHN3f2F9A6+wH8/N1F+GjRh3VrRRCkuOETH3trYPOv/kbR41Htzy1AHAj1qk5Eheo5kbQ6nI9SAGJzV2+FFFvXq0beS6ircd3tuAVITKiXI1m61cJoewyIMfEWHMlqnT2/8iqts/PBf7fOnIe5c/MwcN3G4P/jqUZ+MkmAAckkriyFE66Ejtu0GCp5t4Jjl6jkgcJ3KX74/7vBSBseWq/R27dbSR6RNjai/86AGJ2Ybbsjc2ShotY3bbyi8F2//kbHs9y4rfPxRbyb5j4YEM0Cvbq5mEiW0T4lG7eVhkhyeFSKMSBGZyLBDzHar0TjaMX2PXQvYFSNn1gJTAohxlyRj1tRLJRqxw85GpWKlILQOaKWOgsMSKqI8hZIcNbzNi1Rv9VVZlW+YPw326ccJd7BZhEGpBDpq1uSjoL70Pmztvyn74d/3zng0FdbBmGxBc8/1Q1F5/USlnr84TJRAxiQQgAJl1uwpg5L7ToIGFjp14e5qxQc/yFKyfMONCFgwFaEfZC86uV+/YSlHke0GBD3FVzHG8RYEV5mMSA61Mv9NmKyPgZuznFSd8FQkTX7IFRmopBxKGx/KWRcdDthQOjOjaGRxWx/YT8kUt4MiCE1pNss+yFZ5oYBySKtUpQlmH2esFwZEMKTY2Zo7IdkkSsDkkVapSnLCSVkp5IBkZVUqcrFOOq2rqomLFve7k54cswNjTOuyMqWAZGVVKnKEbuJl7BsGRDCk2NuaJxcW1a2DIispEpVLibUu+X6T3zn1OHHHtH0rqu33WtquKhmhBBOvYN7JwqLmsms/cSGen0PXjg0kbU5Lk9DAgyIznnotSICJuH4QWfOX+sURVnaYkB0zyRaEjzE9fyBGd1Nc3vFS4ABKV7m3KNDEmBAHJosHmrxEmBAipc59+iQBBgQhyaLh1q8BBiQ4mXOPTokAQbEocnioRYvAQakeJlzjw5JgAFxaLJ4qMVLgAEpXubco0MSYEAcmiweavESYECKlzn36JAEGBCHJouHWrwE/h/zirVffaMkegAAAABJRU5ErkJggg==;container=0;" parent="1" vertex="1">
          <mxGeometry x="1103" y="785" width="68" height="68" as="geometry" />
        </mxCell>
        <mxCell id="JCmSJYvO-XVCD5mwtdUW-16" value="&lt;font style=&quot;font-size: 24px;&quot;&gt;&lt;b style=&quot;&quot;&gt;Large Language Model&lt;/b&gt;&lt;/font&gt;" style="text;strokeColor=none;align=center;fillColor=none;html=1;verticalAlign=middle;whiteSpace=wrap;rounded=0;container=0;" parent="1" vertex="1">
          <mxGeometry x="1145" y="808.4999999999999" width="320.75" height="21" as="geometry" />
        </mxCell>
        <mxCell id="JCmSJYvO-XVCD5mwtdUW-2" value="" style="shape=image;verticalLabelPosition=bottom;labelBackgroundColor=default;verticalAlign=top;aspect=fixed;imageAspect=0;image=data:image/png,iVBORw0KGgoAAAANSUhEUgAAAMgAAADICAYAAACtWK6eAAAAAXNSR0IArs4c6QAADdZJREFUeF7tnW9u3DgPh+XdvvdIbjHfNjlJG6At0FM0PcUCmwKbnqTZb3OL5B5brN+RZybzJx6LoiiKkn4DFEVgW6JIPqYoydLgOvut/hyv3Dv33jl3s/vXmQYqae7gXnaSPrn/3D/rz8NjCcmHEpWWqnP1MHoofpaqH/UmaMADM7pH98v9WH8Z9vAkFEh7tBtAVn+NH9zg/qapBXeZ1cAOlPWn4ZuGjF0Agsih4UrqddxrQNI8ILuc41ndfKgwvwYG97j+ONzlrKh9QB5Gn3P43AO/NjWQNZI0DcgKcLSJxHGrtjnJ3frT8JSjsc0CgqQ8h7uYLfNp/Wm4zSFdk4AgKc/hKubLvM0RRdoE5Pv4vBkzvzJvUggop4FMCXtzgCDvkPO5qkoa3Mv643AtLXNTgKwexq8bBd1LKwnlVaKBX+5aepa9GUCQd1TixHnFFM9DmgBEeTIwy3BiXr+prPTBXTFzSAAyZ2q1vCNTP7cy980ubkJXGYCcW0cNDl8xAMkOh68AgAipWX0yEIAIWW65GAAioOYiSTkAEbBcuAgAEtZR8I5ViclAABK0i8QNACRRi6p5x7GsACTRcrTHAQhNT7N3JSjvUN7+e+fY5SgAJMFy9EcTbNz3KJZg3nE7fX4LQOheq3gnAGEoW3AycPrAhpXDIIIwLBf/CACJ15kfG5f4MvD1uwEAwjCC0iMAJFLRInCcvf0BSKQRFG8HIBHKFpwMPEngAEiEEZRvBSBEhUsm5edfmwEQohEK3AZAiEpnOfHbsmd3vWCVjSSdaLm02wAIQX8ieYdzFz/mByAEIxS6BYAEFJ+goJPJwKVPMAFIIe8nVJtg//YnCnPmHce2ASAETy10CwC5oHixyUC/kVhgu3wAUsj7CdUCkEuACE8GLtkCgBA8tdAtAGRG8SJJecQoEwAp5P2EagHImZJyTQYighC80eAtAOTIKFpJ+bkfIIIYJGMnEgA5BkTmy8DoLfABCAChaKDovlgiecfCZCC6WBQXsHcPIkja1i7kyUAAYs/5KRJ1D0ipvAMThRT3LH9P14CITQY6l7SsADlIeRAuSdA3IIqTgehi2YVg0Tb8XfqTXppzMqkm6SWTcgzz1gNLlxFEbDJQ6AwIdLHsAtMdIBaSckQQu0C8sU1vXSzW2/qtPaMnA5GD1APFyQhjT4BYyjswzFsHMN10sRIaKjIZiAhSBxBddrHE8g6/j+7oXjKY+ia6zIjl9NFl44FXDSS8WOsZ5t00cmzQ5hc3gWiwrcWa1Dwgq++j3xj6QzEN56o402H1ucSttdz2AWkzejhH+Na9Vqe0JHfTgAiutbJks60sQpOU9hpmS6K2AXkYffLrd2Jv7Yf8Q8miAERJ0cLViI+QCMvXTHEApD5TInoo2gyAKCpbqCpEDyFFUooBIBQt2bkHcCjbAoAoKzyhOsCRoDzuowCEqzmt57bLW+7OD93Rqr73egCIVQ/YgvHoT8G1KmIPcgEQK1b2QPjf6B6dc/8gYtgwDACZs8PgHt2/Tu3Nvf4y5FghbMPDKpcCgMwbUPSLwcp9pGvxAQgA6RqAUOMBCAAJ+UjX1wEIAOkagFDjAQgACflI19cBCADpGoBQ4wEIAAn5SNfXAQgA6RqAUOMBCAAJ+UjX1wEIAOkagFDjAQgACflI19cBCADpGoBQ4wEIAAn5SNfXAQgA6RqAUOMBCAAJ+UjX1wEIAOkagFDjAQgACflI19cBCADpGoBQ4wEIAAn5yJvru03Br/yF1r+dByAAhAzI5CyD+7DZWGKCY/ptN5t4cqP70SIsAASAkAAJHoDa6DZFAASABAEJwnEcTf5z39afB791URM/AAJAFh05+gDUxg4XBSAAZBkQ3hmPzewjDEAASCiCxJ8Q3NABowAEgFwEJLp7dchFHtcfh7sWkhAAUiEgx/MQOeciVn+NH9zg/o529MgIMrXHz6kY3IIVgFQEyEVjZToigX3GPPGI6l17/EGr/t9hXsXQrvYApBJAiEOtonsKr76PzyeTgvRQspik7yKgj0wHMM7LNjKvAkAqAIQIx74lYpBsnCM+Qd8uPxmWWCK3xwAkAMQ4IGRnOuqirD8O1/SX/fyd7PzDucVTeKPLLQwJADEMSDQc+7YQc4DAW/7r5vp9NGiBBJ3VbSsICQAxCggbjm17ks9Sz5Wgc7tt06LIAsk7ADEISCIcUoDwEvRf7vrScC17XqXgCBcAMQaIABx+CXryRB33Tb+UoO9Gr56ju23HDyhHEgBiCBAROHx7EnOQ6ET68IYPginSRkVIAIgRQEQcZ9+WhW4O5e3Nzj8IkSvB4U5FV4IkQV7xBZuLY+cUw57fk9DnFZtLoMgtCodzybKzRpqIkWvqZv3P/WROQKpDAkAKRxBhOJJHr7w6uPmHI0YukVxEKXEHIAUBMQqHX/7xkxL5zu8JzaAf318LJACkECAW4Ziih9IK3qku391659JGtTJHEgBSABCrcExOy/uC0D/Kyn2sQwJAlAGxDMcOEN4EYcLQsmVIAIgiINbh0EjQL+U2ViEBIEqAVAEHN/8gLHGnJP0WIQEgCoDUAId2gl5LJAEgmQGpBY6kBD0h/5hTv6VIAkAyAlITHEkJOnGCkNLN2t9jBRIAkgmQ2uBISdBjJghrgwSAZACkSjj4CbrI8hbFnOQuZhd6ACIMCHsmel6OrM53XCV7gpCwgjcmamjkJDHf7AMQaUCYO4HMiKEGh6UEXSWSRAwqABBBQASjhyocKfkHdQVvahSZZJRbu0XWLwCRBIS/julYCrLxJJwu1fFyJei5IwlVbgBiCxB1OCZAuAm6Qv6RLSchDk0DEElAHkb/HcXl7TRDr/xSDsePfKwVvCE1hK4nfCl6KBqATF/GcT/+YRk+4W1zMFwBSHJ+Yhty9tjrCTY9qQpdrO2no9qAcOs79RNlSHJ/YhsLwcX8g29Ptn4TXnrYtOHckMIbEgS30JFwPHb+IbSCl9qGhJfd2yowzLvVSYJSWV2spIR3zlMUIgkbEAXZ9ipJsONbrUYeMooIIpikvxqUn/TOGTRrJGHPoEe8halRYnbESqpbdSg8qusDQHIAsp3QWj4gJsZrMr6t2Qk6cRQopplvuqyF4dj1Qni73DsXBSJFT01tHEc6RYmilf09mSDhJujUUaCYJh7fK9qt2hbMclhEkAwR5LWrZTySsPMPgeMVlsCxAgciyGUrsZP0N90Ew5Cw346ZolniwMola7Iix9EAAbpYM5oVA2QyulFIrCXoliIHAFnuHIsCYhUSSwm6RTjQxVLoYp0knsYiiZUE3SocAEQZEEuRhJ2gC+cfluEAIAUAsQIJO/8QBMQ6HACkECAWIGHnH0Iz6DXAAUAKAlIaEm7+IfGJbS1wAJDCgGSBhPCGT3HQ1Bl0we/K99ZLmudYHsycFrxiHiT3PEjQCJKjW4TVqiUTdHbuM6/ErHAgghiIIK8TUpKQBNYdsZ2UEJ2CLwO5bZGywwFADAEi3N1anOgslaCndO3OTKUCBwAxBogYJIGhWG6Cnpx/yCxfV4MDgBgERASSha5QQv7xErNl55xqBSKIKhwAxCggyZAsfMzEHpURmCBMHMFShwOAGAYkAZLFzedKJugJDlcEjgR5/aPiMjf1RWFoNId6nbFUftEw7ARd6BNbxs4v4o5G1T0AMR5BzoaA32/+vr8o8uBenM89Pg1PSw5QKkE/lokECbE9Mc7OuZfdJUUE4ag77Zldkutndg/bm24d6XEzwvQtVDo7BxDIP85l28lyCfr7zZKWH+svw0uoTbmvA5B5DYt/MCVtSO9gsQ5kCZCT6Oj/eOeu/H+hCCitx1B5AKRSQEKGnbvOBiRDd4Ejf4lnAEhHgExJJ2NTu9QJwhKOLVUnAOkNkNjZbIH1V1LOWqIcANIZIFMUoR6YkyE5L+HkKXUCkA4BIUJifqAixfGpzwKQTgGZIPFL7H93N+4398ekhnEaSfIz8cEhY6qD1X4fAOkYkNqdV0N+AAJANPys2joACACp1nk1BAcgAETDz6qtA4AAkGqdV0NwAAJANPys2joACACp1nk1BAcgAETDz6qtA4AAkGqdV0NwAAJANPys2joACACp1nk1BAcgAETDz6qtA4AAkGqdV0NwAAJANPys2joACACp1nk1BAcgAETDz6qtA4AAkGqdV0NwAAJANPys2joACACp1nk1BAcgAETDz6qtA4AAkGqdV0NwAAJANPys2joACACp1nk1BAcgAETDz6qtA4AAkGqdV0NwAAJANPys2joACACp1nk1BAcgAETDz6qtA4AAkGqdV0NwAAJANPys2joACACp1nk1BAcgAETDz6qtA4AAkGqdV0NwADKn5cG9uNEVP8RewwFQR0ADg7vanbwVq6pb6TPfh1gJQvcnnAseKhrXoYFlDfxy1+svg+hLFoDA6drRQA2AeG2vHsafm4Mpb9rRPFpSgwY2B6GKv/DFC9wB8nXz/30NSoWMjWgg0/nyuQDx0cNHEfygAS0NiCfoXvAsgKCbpeUTqGenAX/O/G0ObeQD5M/xyr1zzzmERpnQwJkGskSPrBEEuQicWEkD95vk/FuuurJFkL3ACbOiudqMctvRQLau1V5F+QHZdrXeY1SrHa800ZJMo1bnbcsOCCKJCXdqS4jR3a0/D48ajVIDZMpJEE00bNpyHVnzjTnFqQLyGk08KL+7G/eb+2NalMZfnNayM/TdNr941f9GN0WKnIn4kqL/DyPyMX1E5wOuAAAAAElFTkSuQmCC;container=0;" parent="1" vertex="1">
          <mxGeometry x="1535" y="790.31" width="67" height="67" as="geometry" />
        </mxCell>
        <mxCell id="JCmSJYvO-XVCD5mwtdUW-20" value="&lt;font style=&quot;font-size: 24px;&quot;&gt;&lt;b style=&quot;&quot;&gt;Answer(program)&lt;/b&gt;&lt;/font&gt;" style="text;strokeColor=none;align=center;fillColor=none;html=1;verticalAlign=middle;whiteSpace=wrap;rounded=0;container=0;" parent="1" vertex="1">
          <mxGeometry x="1545" y="813.31" width="320.75" height="21" as="geometry" />
        </mxCell>
        <mxCell id="JCmSJYvO-XVCD5mwtdUW-3" value="" style="shape=image;verticalLabelPosition=bottom;labelBackgroundColor=default;verticalAlign=top;aspect=fixed;imageAspect=0;image=data:image/png,iVBORw0KGgoAAAANSUhEUgAAAMgAAADICAYAAACtWK6eAAAAAXNSR0IArs4c6QAACjhJREFUeF7tnWF62jgQQMf0IvQkwSfZ5CBJTHIQsicxPUnpQQobmaVJSgiSLMsjzeP7+m1/SNbMm3kry0BpJPer61eylxs5yGpYupGlyPCHV1oCOznIThZy+u8P6dpt2iXqv1qTJcWH/nEQ4SC3WdZjkUsEdtLIVhpZS9fuwHSdwLSCHHeLDTvE9UJkHuHkeJGndp153eKWm0aQrl/Kb9m8/t/qeBvFSysBRLlSmfSCHHeNXmtHENcZAST5oinSCuLOGiIdTVgkgY5brvO6pRPksd9wCC9SjLegG3mRdXtXeBZJw08jyH1/K81wGOdVOgEk+VDB8YJw5ihdic/uK9hJ/qcyXpCH/lBfh5DRcJbkMbCME4RzR+0mmZckXhD3XsdeftbeIeRneyeJF4Tdw5I7ZneSeEE4e1gSxOVqUpI4QXisa02OU77mJIkThNsrq4KY20niBOH2yrIgpiQJF4SnV9blMHW7FSMIn9ZFETOShAvCAR09PhKo+uCOILR7CgLVShIuCN/5SNFQNV6jSkkQpMZWnS+n6iRBkPmaqdaVq5IEQWpt03nzqkYSBJm3kWpevQpJEKTmFp0/t+IlQZD5m6j2CIqWBEFqb08d+RUrCYLoaCALURQpCYJYaE09ORYnCYLoaR4rkRQlCYJYaUtdeRYjCYLoahxL0RQhCYJYakl9uaqXBEH0NY21iFRLgiDW2lFnvmolQRCdDWMxKpWSIIjFVtSbszpJEERvs1iNTJUkCGK1DXXnrUYSBNHdKJajUyEJglhuQf25zy4JguhvEusRzioJglhvvzLyn00SBCmjQYhypt8nQRBaryQC2XcSBCmpPYjVEcgqCYLQdCUSyCYJgpTYHsScbSdBEJqtVAI7EXmRp3Y9ZQIIMiVdrj01gcklQZCpS8j1pyYwqSQIMnX5uH4OApNJgiA5yscaOQhMIgmC5Cgda+QikFwSBMlVOtbJRSCpJAiSq2ysk5PAThZyJ127HbsogowlyHytBJwkrXSt21GiXwgSjY6JBRDYyVP7fUycCDKGHnP1E2jkRdbtXWygCBJLjnmlEBh1HkGQUspMnPEERuwiCBKPnZklETge2IOfaiFISUUm1jEEor5DgiBjkDO3HAIH2cpz24YGjCChxBhfKoGoR74IUmq5iTucQMQ5BEHCMTOjVAIIUmrliDsLgYPcyXP7ErIWO0gILcaWTiD4SRaClF5y4g8hgCAhtBhrjgCCmCs5CYcQQJAQWow1RwBBzJWchEMIIEgILcZGEejkIL+Gx6Vdv5TfspKF3MhBbqOulncSguTlbWq1r79X0fUr2cvm9Z8DXSqmgiCKi1NyaH6fY3I7yl5+Kk4UQRQXp9TQ/OQ4ZffQP77+tVOaLIIoLUypYYXJ4bLUvYsgSKmdqDDucDnedpGDwnwGfUN/LoGPmiit5MxhxcvhAn/o3TlE42EdQWZurBqWHyfHURB2kBo6gRzOCIyX476/lWZ43KvxxQ6isSqFxDReDpfofd9LIyulOSOI0sJoDyuNHLof8XJI196FSuNLI4fuW6sTenYQpU2oNSxLcrCDaO1CpXFZkwNBlDaixrAsyoEgGjtRYUxW5UAQhc2oLSTLciCItm5UFo91ORBEWUNqCgc5jtXgMa+mrlQSC3K8FQJBlDSlljCQ42MlEERLZyqIAznOi4AgChpTQwjI8XkVEERDd84cA3JcLgCCzNyccy+PHF9XAEHm7tAZ10eO6/ArF8T9EKPIv/JNdiLDH/fvMN0Mz7dtv5DDr/5VC3I5ueM/NfOPUVGQw0+Oit8o9P3pLP3faPMvpd9I5PDjdBpV4Q4S+vvWdiRBjjA5Kt1BfHeP97DqlwQ5wuWoVJCFfJeudQfysFe9kiBHWCe8H13hLVasIA5LfZIgR7wc1e4grXSte7wb96pHEuSI64DKd5BGXmTd3o1iU74kyDGqAf5MrvAWy70huBC3i4SfQ+o4uCNHGjkqvcVyaYU+6r0EtLydBDnSyVGxIC61FLdaZR3ckSOtHJULYksS5EgvhwFBbEiCHNPIYUSQuiVBjunkMCRInZIgx7RyGBOkLkmQY3o5DApShyTIkUcOo4KULQly5JPDsCBlSoIceeUwLkhZkiBHfjkQZGCu/x135JhHDgT5w12vJMgxnxwI8oG9PkmQY145EOSMvx5JkGN+ORDk0xrMLwly6JADQS7WYT5JkEOPHAjyZS3yS4IcuuRAkKv1yCcJclwtxiwDqvxOelqS00uCHGkrlvJqCOJFczpJkMOrALMNQhBv9OklQQ5v+LMNRJAg9CkleWrXQWt/Nvi+v5VGNqOvwwUuEUCQ4N5IJUnwwn9NQI6xBH3mI4gPpbMxc0uCHFFli5iEIBHQjlPmkgQ5oksWMRFBIqC9TcktCXKMKlfEZASJgPZxSi5JkGN0qSIugCAR0M6nTC0JciQpU8RFECQC2udTppIEOZKVKOJCCBIB7fKU1JIgR9LyRFwMQSKgfT0llSTIkbw0ERdEkAho16eMlQQ5rjPOMwJBJuMcKwlyTFaSiAsjSAQ0/ymhkiCHP9s8IxFkcs6+kiDH5KWIWABBIqDFTPn6h0XL+y3EGAYlzkGQjFXbSSNb2csP+SbHX+Ddy42I3IrIMmMcLOVPAEH8WTHSIAEEMVh0UvYngCD+rBhpkACCGCw6KfsTQBB/Vow0SABBDBadlP0JIIg/K0YaJIAgBotOyv4EEMSfFSMNEkAQg0UnZX8CCOLPipEGCSCIwaKTsj8BBPFnxUiDBBDEYNFJ2Z8AgvizYqRBAghisOik7E8AQfxZMdIgAQQxWHRS9ieAIP6sGGmQAIIYLDop+xNAEH9WjDRIAEEMFp2U/QkgiD8rRhokgCAGi07K/gQQxJ8VIw0SQBCDRSdlfwII4s+KkQYJIIjBopOyPwEE8WfFSIMEEMRg0UnZl8BB7uS5ffEd7sY1IYOHsV2/ev1n/vvgeUyAwNwEEGTuCrC+agILaaVrtyExxuwgS9nLz5BFGAsBFQQW8l269vhjR54vBPEExbAKCDy1wf0ePGHAdN/3rz8/tqoAGSlYIeD746t/8YgThIO6lbaqJ8+IA7pLPlYQziH1tI6NTCJur+IFcTMf+40chl905QUB3QQib6/GCdL17CK624LoTgQinl6dpsbdYp1mP/SPr3/tqAQE1BIYsXuM20Hc7OMu4t5VX6oFRGC2CUSePdLsIEdJ+OiJ7RbUm33EO+d/JzPuFut0tfv+VhrZ6CVFZOYIRD7WnUYQd1XOI+Z6UG3CB9nKc9umiC/NDsKhPUUtuEYaAsHf+fhq2bSCuJW43UpTZq4STiDBmWO6W6z3V3ZPt37Lhs9rhdeYGVEEdrKQu9CPsvuslH4Heb/qcTdx75XwGNinGowJJbCTg6xDvyUYssi0grhIjrvJShZyw0dTQkrD2IsE3CG8ka08teupKU0vyPmt11EW99rLUpphd2GHmbrSZV7/+OWmg+wGIQ7ya8rd4jNE/wHepx8UjxxhaQAAAABJRU5ErkJggg==;container=0;" parent="1" vertex="1">
          <mxGeometry x="2171" y="788.33" width="56.69" height="56.69" as="geometry" />
        </mxCell>
        <mxCell id="JCmSJYvO-XVCD5mwtdUW-21" style="edgeStyle=orthogonalEdgeStyle;rounded=0;orthogonalLoop=1;jettySize=auto;html=1;" parent="1" edge="1">
          <mxGeometry relative="1" as="geometry">
            <mxPoint x="1814" y="823.38" as="sourcePoint" />
            <mxPoint x="1949" y="823.38" as="targetPoint" />
          </mxGeometry>
        </mxCell>
        <mxCell id="JCmSJYvO-XVCD5mwtdUW-22" value="&lt;font style=&quot;font-size: 24px;&quot;&gt;&lt;b style=&quot;&quot;&gt;Answer(Result)&lt;/b&gt;&lt;/font&gt;" style="text;strokeColor=none;align=center;fillColor=none;html=1;verticalAlign=middle;whiteSpace=wrap;rounded=0;container=0;" parent="1" vertex="1">
          <mxGeometry x="2038.97" y="848.3499999999999" width="320.75" height="21" as="geometry" />
        </mxCell>
        <mxCell id="JCmSJYvO-XVCD5mwtdUW-24" style="edgeStyle=orthogonalEdgeStyle;rounded=0;orthogonalLoop=1;jettySize=auto;html=1;" parent="1" edge="1">
          <mxGeometry relative="1" as="geometry">
            <mxPoint x="2029" y="826" as="sourcePoint" />
            <mxPoint x="2164" y="826" as="targetPoint" />
          </mxGeometry>
        </mxCell>
        <mxCell id="JCmSJYvO-XVCD5mwtdUW-25" value="&lt;font style=&quot;font-size: 26px;&quot;&gt;&lt;b&gt;&lt;i&gt;Central Question&lt;/i&gt;&lt;/b&gt;&lt;/font&gt;" style="text;strokeColor=none;align=center;fillColor=none;html=1;verticalAlign=middle;whiteSpace=wrap;rounded=0;" parent="1" vertex="1">
          <mxGeometry x="728.57" y="660.12" width="192.97" height="30" as="geometry" />
        </mxCell>
        <mxCell id="JCmSJYvO-XVCD5mwtdUW-26" value="&lt;font style=&quot;font-size: 26px;&quot;&gt;&lt;b&gt;&lt;i&gt;Test Question&lt;/i&gt;&lt;/b&gt;&lt;/font&gt;" style="text;strokeColor=none;align=center;fillColor=none;html=1;verticalAlign=middle;whiteSpace=wrap;rounded=0;" parent="1" vertex="1">
          <mxGeometry x="1806" y="597" width="269" height="30" as="geometry" />
        </mxCell>
        <mxCell id="JCmSJYvO-XVCD5mwtdUW-27" value="&lt;font style=&quot;font-size: 26px;&quot;&gt;&lt;b&gt;&lt;i&gt;Code CoT List Construct&lt;/i&gt;&lt;/b&gt;&lt;/font&gt;" style="text;strokeColor=none;align=center;fillColor=none;html=1;verticalAlign=middle;whiteSpace=wrap;rounded=0;" parent="1" vertex="1">
          <mxGeometry x="881" y="-76" width="195" height="30" as="geometry" />
        </mxCell>
        <mxCell id="_-aEXdGkPIiCTenH8Wd5-4" value="" style="group" vertex="1" connectable="0" parent="1">
          <mxGeometry x="351" y="-596" width="138.38000000000005" height="44" as="geometry" />
        </mxCell>
        <mxCell id="_-aEXdGkPIiCTenH8Wd5-1" value="" style="whiteSpace=wrap;html=1;aspect=fixed;fillColor=#d5e8d4;strokeColor=#FFFFFF;" vertex="1" parent="_-aEXdGkPIiCTenH8Wd5-4">
          <mxGeometry width="44" height="44" as="geometry" />
        </mxCell>
        <mxCell id="_-aEXdGkPIiCTenH8Wd5-2" value="&lt;font style=&quot;font-size: 27px;&quot;&gt;Question&lt;/font&gt;" style="text;strokeColor=none;align=center;fillColor=none;html=1;verticalAlign=middle;whiteSpace=wrap;rounded=0;" vertex="1" parent="_-aEXdGkPIiCTenH8Wd5-4">
          <mxGeometry x="78.38000000000005" y="9" width="60" height="30" as="geometry" />
        </mxCell>
        <mxCell id="_-aEXdGkPIiCTenH8Wd5-10" value="" style="group" vertex="1" connectable="0" parent="1">
          <mxGeometry x="569.38" y="-599" width="138.38000000000005" height="44" as="geometry" />
        </mxCell>
        <mxCell id="_-aEXdGkPIiCTenH8Wd5-11" value="" style="whiteSpace=wrap;html=1;aspect=fixed;fillColor=#f8cecc;strokeColor=#FFFFFF;" vertex="1" parent="_-aEXdGkPIiCTenH8Wd5-10">
          <mxGeometry width="44" height="44" as="geometry" />
        </mxCell>
        <mxCell id="_-aEXdGkPIiCTenH8Wd5-12" value="&lt;font style=&quot;font-size: 27px;&quot;&gt;Prompt&lt;/font&gt;" style="text;strokeColor=none;align=center;fillColor=none;html=1;verticalAlign=middle;whiteSpace=wrap;rounded=0;" vertex="1" parent="_-aEXdGkPIiCTenH8Wd5-10">
          <mxGeometry x="86.00000000000006" y="10" width="60" height="30" as="geometry" />
        </mxCell>
        <mxCell id="_-aEXdGkPIiCTenH8Wd5-13" value="" style="group" vertex="1" connectable="0" parent="1">
          <mxGeometry x="796.38" y="-599" width="138.38000000000005" height="44" as="geometry" />
        </mxCell>
        <mxCell id="_-aEXdGkPIiCTenH8Wd5-14" value="" style="whiteSpace=wrap;html=1;aspect=fixed;fillColor=#dae8fc;strokeColor=#FFFFFF;" vertex="1" parent="_-aEXdGkPIiCTenH8Wd5-13">
          <mxGeometry width="44" height="44" as="geometry" />
        </mxCell>
        <mxCell id="_-aEXdGkPIiCTenH8Wd5-15" value="&lt;font style=&quot;font-size: 27px;&quot;&gt;Rationale&lt;/font&gt;" style="text;strokeColor=none;align=center;fillColor=none;html=1;verticalAlign=middle;whiteSpace=wrap;rounded=0;" vertex="1" parent="_-aEXdGkPIiCTenH8Wd5-13">
          <mxGeometry x="86.00000000000006" y="10" width="60" height="30" as="geometry" />
        </mxCell>
        <mxCell id="_-aEXdGkPIiCTenH8Wd5-16" value="&lt;font style=&quot;font-size: 24px;&quot;&gt;1&lt;/font&gt;" style="rounded=1;whiteSpace=wrap;html=1;container=0;" vertex="1" parent="1">
          <mxGeometry x="1110.0034743202418" y="-386.2505194805194" width="26.75129909365559" height="29.50316883116883" as="geometry" />
        </mxCell>
        <mxCell id="_-aEXdGkPIiCTenH8Wd5-17" value="&lt;font style=&quot;font-size: 24px;&quot;&gt;K&lt;/font&gt;" style="rounded=1;whiteSpace=wrap;html=1;container=0;" vertex="1" parent="1">
          <mxGeometry x="1110.0034743202418" y="132.99948051948058" width="26.75129909365559" height="29.50316883116883" as="geometry" />
        </mxCell>
      </root>
    </mxGraphModel>
  </diagram>
</mxfile>
